<mxfile host="app.diagrams.net" modified="2020-12-13T00:56:41.374Z" agent="5.0 (Windows NT 10.0; Win64; x64) AppleWebKit/537.36 (KHTML, like Gecko) Chrome/87.0.4280.88 Safari/537.36" etag="cFesa_O3p1m-CUPuIpzl" version="14.0.1" type="github">
  <diagram id="KtYnDnJUeSTWCTTDEsZ9" name="Page-1">
    <mxGraphModel dx="1038" dy="548" grid="1" gridSize="10" guides="1" tooltips="1" connect="1" arrows="1" fold="1" page="1" pageScale="1" pageWidth="827" pageHeight="1169" math="0" shadow="0">
      <root>
        <mxCell id="0" />
        <mxCell id="1" parent="0" />
        <mxCell id="iDujMUlF39iX-u3SAnA6-23" value="" style="shape=mxgraph.signs.tech.computer;html=1;pointerEvents=1;fillColor=#000000;strokeColor=none;verticalLabelPosition=bottom;verticalAlign=top;align=center;" vertex="1" parent="1">
          <mxGeometry x="326.92" y="430" width="258" height="200" as="geometry" />
        </mxCell>
        <mxCell id="iDujMUlF39iX-u3SAnA6-2" value="Wifi Router&amp;nbsp;" style="image;html=1;image=img/lib/clip_art/networking/Wireless_Router_128x128.png" vertex="1" parent="1">
          <mxGeometry x="180" y="170" width="190" height="140" as="geometry" />
        </mxCell>
        <mxCell id="iDujMUlF39iX-u3SAnA6-3" value="Esp32 Master" style="shape=image;verticalLabelPosition=bottom;labelBackgroundColor=#ffffff;verticalAlign=top;aspect=fixed;imageAspect=0;image=https://www.mouser.it/images/espressifsystems/lrg/ESP32-DevKitC-S_NEW_t.jpg;" vertex="1" parent="1">
          <mxGeometry x="440" y="210" width="110" height="110" as="geometry" />
        </mxCell>
        <mxCell id="iDujMUlF39iX-u3SAnA6-4" value="" style="shape=flexArrow;endArrow=classic;startArrow=classic;html=1;exitX=1;exitY=0.66;exitDx=0;exitDy=0;exitPerimeter=0;entryX=0;entryY=0.5;entryDx=0;entryDy=0;" edge="1" parent="1" source="iDujMUlF39iX-u3SAnA6-2" target="iDujMUlF39iX-u3SAnA6-3">
          <mxGeometry width="50" height="50" relative="1" as="geometry">
            <mxPoint x="430" y="280" as="sourcePoint" />
            <mxPoint x="640" y="240" as="targetPoint" />
          </mxGeometry>
        </mxCell>
        <mxCell id="iDujMUlF39iX-u3SAnA6-5" value="Esp32 Nodes" style="shape=image;verticalLabelPosition=bottom;labelBackgroundColor=#ffffff;verticalAlign=top;aspect=fixed;imageAspect=0;image=https://www.mouser.it/images/espressifsystems/lrg/ESP32-DevKitC-S_NEW_t.jpg;" vertex="1" parent="1">
          <mxGeometry x="624.92" y="80" width="120" height="120" as="geometry" />
        </mxCell>
        <mxCell id="iDujMUlF39iX-u3SAnA6-7" value="" style="shape=flexArrow;endArrow=classic;startArrow=classic;html=1;entryX=0;entryY=0.5;entryDx=0;entryDy=0;exitX=1;exitY=0.25;exitDx=0;exitDy=0;" edge="1" parent="1" source="iDujMUlF39iX-u3SAnA6-3" target="iDujMUlF39iX-u3SAnA6-5">
          <mxGeometry width="50" height="50" relative="1" as="geometry">
            <mxPoint x="550" y="210" as="sourcePoint" />
            <mxPoint x="610" y="160" as="targetPoint" />
          </mxGeometry>
        </mxCell>
        <mxCell id="iDujMUlF39iX-u3SAnA6-8" value="" style="shape=flexArrow;endArrow=classic;startArrow=classic;html=1;exitX=1;exitY=1;exitDx=0;exitDy=0;entryX=0;entryY=0.5;entryDx=0;entryDy=0;" edge="1" parent="1" source="iDujMUlF39iX-u3SAnA6-3" target="iDujMUlF39iX-u3SAnA6-9">
          <mxGeometry width="50" height="50" relative="1" as="geometry">
            <mxPoint x="540" y="380" as="sourcePoint" />
            <mxPoint x="620" y="360" as="targetPoint" />
          </mxGeometry>
        </mxCell>
        <mxCell id="iDujMUlF39iX-u3SAnA6-9" value="Esp32 Nodes" style="shape=image;verticalLabelPosition=bottom;labelBackgroundColor=#ffffff;verticalAlign=top;aspect=fixed;imageAspect=0;image=https://www.mouser.it/images/espressifsystems/lrg/ESP32-DevKitC-S_NEW_t.jpg;" vertex="1" parent="1">
          <mxGeometry x="630" y="320" width="100" height="100" as="geometry" />
        </mxCell>
        <mxCell id="iDujMUlF39iX-u3SAnA6-15" value="&lt;font style=&quot;font-size: 24px&quot;&gt;Serra Mesh - Infrastruttura di rete&lt;/font&gt;" style="text;html=1;align=center;verticalAlign=middle;resizable=0;points=[];autosize=1;" vertex="1" parent="1">
          <mxGeometry x="190" y="40" width="370" height="20" as="geometry" />
        </mxCell>
        <mxCell id="iDujMUlF39iX-u3SAnA6-16" value="MQTT/HTTP" style="text;html=1;strokeColor=none;fillColor=none;align=center;verticalAlign=middle;whiteSpace=wrap;rounded=0;" vertex="1" parent="1">
          <mxGeometry x="380" y="280" width="40" height="20" as="geometry" />
        </mxCell>
        <mxCell id="iDujMUlF39iX-u3SAnA6-20" value="" style="group" vertex="1" connectable="0" parent="1">
          <mxGeometry x="30" y="430" width="258" height="200" as="geometry" />
        </mxCell>
        <mxCell id="iDujMUlF39iX-u3SAnA6-17" value="" style="shape=mxgraph.signs.tech.computer;html=1;pointerEvents=1;fillColor=#000000;strokeColor=none;verticalLabelPosition=bottom;verticalAlign=top;align=center;" vertex="1" parent="iDujMUlF39iX-u3SAnA6-20">
          <mxGeometry width="258" height="200" as="geometry" />
        </mxCell>
        <mxCell id="iDujMUlF39iX-u3SAnA6-19" value="" style="shape=image;verticalLabelPosition=bottom;labelBackgroundColor=#ffffff;verticalAlign=top;aspect=fixed;imageAspect=0;image=data:image/png,iVBORw0KGgoAAAANSUhEUgAAA3QAAAH7CAYAAACE6d2fAAAgAElEQVR4Aeyd6bMmRZm3/Qfmix+MmE8TMRHGxHwwDMNxdHRQVAQUBJFFeFlUBIEBUWRHFARksUEbRAZQepCtAUHZZBUB2YZNNgXZZd9suk/ve77xe3ruh7vzVGVl1Xm2qnNVRHfVqacq884r11/l9p7AAQEIQAACEIAABCAAAQhAAAKtJPCeVlqN0RCAAAQgAAEIQAACEIAABCAQEHQkAghAAAIQgAAEIAABCEAAAi0lgKBracRhNgQgAAEIQAACEIAABCAAAQQdaQACEIAABCAAAQhAAAIQgEBLCSDoWhpxmA0BCEAAAhCAAAQgAAEIQABBRxqAAAQgAAEIQAACEIAABCDQUgIIupZGHGZDAAIQgAAEIAABCEAAAhBA0JEGIAABCEAAAhCAAAQgAAEItJQAgq6lEYfZEIAABCAAAQhAAAIQgAAEEHSkAQhAAAIQgAAEIAABCEAAAi0lgKBracRhNgQgAAEIQAACEIAABCAAAQQdaQACEIAABCAAAQhAAAIQgEBLCSDoWhpxmA0BCEAAAhCAAAQgAAEIQABBRxqAAAQgAAEIQAACEIAABCDQUgIIupZGHGZDAAIQgAAEIAABCEAAAhBA0JEGIAABCEAAAhCAAAQgAAEItJQAgq6lEYfZEIAABCAAAQhAAAIQgAAEEHSkAQhAAAIQgAAEIAABCEAAAi0lgKBracRhNgQgAAEIQAACEIAABCAAAQTdCNPAW2+9FU466aTwL//yL+E973lP76y/dZ8DAhCAAAQgAAEIQAACEIBAXQJJQbd8+fKwzz779MSHBMig/0nYbL755mHnnXcOp5xySrjhhhvCyy+/HNasWVM3HBP//D333BM++MEPFjLUff3exuO4444rDFMqrShNKW1xjIZAkzgqir9//dd/DX/+85+HbrT8kF9FNtS9p7DPxuOiiy6qza8trJqEzaebj370o+GJJ55onCz+/ve/hy222KI2X7Phrrvuauw3L0JgnASa1CXKr204ZpqvLX/r/LWvfS0sXbp06MH+5S9/2bgc8vbqmnJp6NE1dA+Sgs77rgb4888/H37yk5/0e5jiBDGov//pn/4pfOtb3+olsC6IuxdeeCF84hOfSGa8T3/60+GVV17xyFtxvX79+qCCcN68ednpAkE3nqhtEldxnj7ttNOC3BnWIbflR+xvzt8f+chHwnXXXRfeeeedodo4rLAP0l1xfP3118PcuXODytMcfm0RdOK0atWqXn2kEQ7vfe97s8LnGWy77bbhjTfemBHydevW9UZXXHzxxWGTTTYptWHrrbcOF1xwQc9ePmTNCDkvj5mA0vxzzz0XDjnkkPAP//APpWne57W2CDqPVu3OZ599tlY4fZj/8R//Mdx3333eyYFfq57bbrvtsuLA26brPfbYIzz66KN8WB94rIzXwWxB58187LHHSnub4oSjv73yN2GohsYHPvCBysSoivKWW24JKkjaeuR+RdFzbT6uvPLKyvhUekDQjT+W1UOhnoqi/Jq6t9lmm4XXXnttaAF4++23w5ZbblnbrkE00IcWqDE6LGF37rnnZvFsk6DzSB988MFGafnggw8OK1eu9E41vl68eHE44ogjpnE++eSTOznipDEoXuwEAQmeo446alp6L6o72ijoLJJUfuqDTa549eH//ve/H9auXWtODfysdnUTuyiTBh4VE+NgI0GnRH788cdnZWYlcC/ofMjVJT1nzpzKRKlEq8JDlWbbDn1JPuigg7JYHXnkkUMtAIbN7plnngkf/vCHK8OKoBt2TOS533TomoT7sI7f//73leWBrzTtepg2DSuso3JXX2Lf//73V+bLtgo6cbz99tuzeyItzaheUWNN9dkgDo2w0EgLc19fwaempgbh9ES48cADD/RGmvz1r3+dCHswYrwErr766n5atzRfdG6zoBNhdUKozVIUttQ9fTDVqLZhHBKKEowp/4t+G6ZNwwgnbtYj0EjQyYs6jcEyQSd36nwB2XvvvcOCBQvqhXDMT88mQZc7Bh1BN+ZE+X/eK18WFfpV94Y1P0C9JQceeGDPpve9733Zwk5iRaKFo5jA3/72t/Dxj3+8Mq7bLOjq1CM+fWs4qsTgII74Q+fZZ589CGcnwg19fFX9q/neCLqJiJKxG5Fbf7Rd0Am0ykZfbuReD2vUlYSijbDR8M5ce3bfffdWdoyMPbG3xIDGgi43MyuhpQSdOKkhp+EvOYnyv/7rv0Yy2XSQ8aeKPSdsw8r8gwxLyq3cL1kIuhTF0f325JNPZg17jtPusOYH+MVQVB5oeGfsd9HfNDLTaSb3Q0ubBZ0IaBjYYYcdlpVmfDpSw+jpp59OQ8z81X/ovOOOOzLfmvzH5s+f3/vAQl6b/LgalYUS9koPPi8VXXdB0P3qV7+qDGdR2DXHTXPdBn3YNB7VxZpHXOR30T3aXoOOiclybyIEnZDoC3vuynYXXnjhwIbJjCI6urwoiueHoPM0Jv/aV8gf+tCHsisFVRSDnh+g3g1bDEXlwG233Za9kiCNzHRamy2CThSafkkf1IdC/6Gz6kNmOtYm51c/35a8NjnxMm5LfP1RJB7sXhcEnX2okYCybacsfKmzhnVrGsEgD78YikbL3Hjjjdl1N4JukDExeW5NjKDTkA4lzlTmsN/auCJkV7ct8EkaQedpTP61r5D1lS+3R0z5cNBj8bXQivmvYZevvvoqgm5ASQhBl7flziAWC+iaoLOhllb3IugGlCk74IyvPyx9FJ27JOiU/n/6059mTwcQD9Vng1p8ScnGzzPX3HFf5hTx9/cQdB3IeIkgTIygk43aEsEnvtR1GwuJeGNx9Yp0aWNxBF0ip03gT75CVq+39ZCl8p3/bZBDhG2FVPuimStCZA+NzHTiymXZ9iGXomA9dHXmYFqaHsQiKb5x1fYeOg1hlcg1PuS1dD6bbb/6+sOnkfi6jW21OC6th051jT7O19kuYJD7t/p55rbitC9zYvbx3wi6OGa79fdECbrcVZOUSDVEZsWKFd2KjZaHBkHXrgj0FbIqLP93XBEU/T2o+QG+d97czBUhsgtBl053uSy7JOiOPvroaWKkKA3H95SWZrLpuG9ctVnQlS0yQ15L57XZ9GtufdE1Qadwm8CLy4+yvwe1f6ufZ25u+jKnzH+7j6Drdg6dKEFXJ2FuscUWvQ2tux097Qodgq5d8eUrZFVQdZdCVo/GVVddNeNAawNWW6nLev1yRYgqKhqZ6SjIZdklQaew6EOBPvxZYyb3PJM9DX0d1lZBJzF3/fXXF24DQV5L57XZ9KuvP1J5q4uCzk8RSIXdfvvEJz4RtJbCTI54nrnEnQ5f5ph/ZWcE3UxiYPLfnShBl7tfkhIrFcvkJS4E3eTFScoiXyFbpevFVVml4O/PdAsDLyL9vLxcEUJZkIrhDb/lsuyaoFPo33jjjSCB5tNsznXTRVJ846qNgk6NxltvvbVQzJHXqvPabHrC1x+pPGV1S5vZKAw+/XtxlQq7/80+Vjbl4EWkn5fnyxzvX9E1gq4p/Xa8N1GCLreAUEJF0E1eAkPQTV6cpCzy+c0qXT/8sahCiO/NdAsDv5+OXzkzV4RQFqRieMNvuSy7KOhEoM4Kyj59n3vuubVXU/aNq7YJulTPnHGh3q3Ob7PlCV9/WPooOlvd0mYusaBTWPzwx6Jwx/dsOkFTDvE8c3PHlzmxn/HfCDqj1s3zRAm6Bx98sD/0Kk6I8d/aKFcb5nJMDgEE3eTERY4lvkL2la5fRSvOd0V/eyGW469/xiqpWBjmihDZQyPTE51+ncuyq4JOQuXiiy+utTKd0lWTTcd946pNgm7dunU9Ru9973uTvZnkten5a7be8fVHUb1g93zd0lZWRYLOjy6xsKbOtuBXEwZ+MZRYGPoyJ+W/fkPQNaHfnncmStDVSZhbbbVV4w0b1Qshv0499dSw8847h4997GMbVWKqyL/whS/0Vky7//77exvWtidK05Zq5TKFXV32fu8xXWshgccffzyocm9yjFLQvfnmm0Gb3WrInw+H9ohRnKoBp4bsIA65I/fkrt+DRummiJkakHPnzg077LBDWLRoUS0TlDavu+66aeFSGBVnijvFoT80j01j9Ot+4PAVsq90/T43VRWEfvdDJb1dVde+NzAeupkrQuT/oBuZir+XXnopnH322dPiXPEgWxVHsn+mh/KaPmQpHW2yySZ90aEyaKedduql8ampqY28sX0ttYhUzpHLskjQiYUWCZF9vpy0tK/f9MykHAqD0kQclqIVG3PTdp1FUnwdputBHsMq81RuH3/88f20l+Iy6Lw2SD7jdsvKDQ2ti+slNeaVvzWUV2VHnKfHabvKh3POOSdsueWWvTSgsueggw7qlYEpu3z9kUozvm5JuTfJvxUJOtlbd4qCHypZJ7y+NzAeuunLnFQ86LdBC7pVq1b16q+f//znvTTv6zD5pw9E2mbsyCOP7O0tq7JmHIfqWbVt43pM7Tnl1ZtuuimMy7ZB8pgoQVdnlUslEH0hyT1UoWuz4l122SWr4vIZ4yMf+Ui45pprsoVObkHn/dB1qgFgDZX4ndTfviBVgr7llluCwpJ6R7+p0lmwYEEu2v5zoxB0L774YjjkkEOy4lCFiRoqTcKiQCk82kqj6qu1mG299dbhgQce6KVJm4NSZ+Eepc9LLrlkI8FYFk+Kw5tvvrkn7FRISVA1aWj5dOrTisKuSqPM/6L7cSXTTxSJC18ZqqfOH7kiRLY0Cbv3y65NvOyxxx5ZYVdlcNZZZzWuCB5++OFeuini6e8p/SkdqhG4ePHisN9++/Xsi+PMwhGfc1nGIkiitoqFGqpHHXVUz67Y33H8beVkHBbZIgHeZJEUfRHXljM5h29cpcrzHLfsmWGWeYpj1Yk+vc3kWg3GV155JXsPyTK/jF1unVLmju7H+cSXe6n3zAaLh7Kzyo2HHnqo1lL2yjcHHHBAo4UyFJ6U3UW/FeWHqjpH9crTTz9dFuzsVZFj/t7B3LiIw1SnbvX+Nb025nFd4z9KxjYW/d1kCwOlL9tSqOjjqS9zivz09wYh6NSWVHrff//9s9pG3n/VmWor5O7L1zR9+LyrD6BV9ZhslG1qgylftPWYKEF34oknZhVUdbquTcjoy4ElLDW+NazMek8UgY899lhlpB9xxBHZDRd9udDcjTqVpU+EcYJSOJ577rmg4W0Kv4UldbaCVI1A2Z56Nv5txx137C0oENuR+ju38m1SqJRVPsqo4qJCT4Wr5r3EfNR7pQKozlHU+JO7c+bM6fcM6xmtBqfKJeanv3MrHYUt3u9J70u4qnGksCk93XnnnaXpKa5ocsLqC0tLK/ae9QIVhavoXjwMxNwpO/vhKrafjn82V4TIliZh937puki8K74PP/zwoMnoOtRzecwxx0yLa4W9bu/o7bffPm3hic033zzYiADL7z/84Q9LK804zuIw2d+5LK3Rp/Smj1+q4Iriuuje7rvvni16zK5hnFOCTv41XSQld9Nx37hKlec5YR9mmac4Vh2ovFMUn03vWdmu3sQf//jHpWm3yH2NulGZpLTvD5V9d9xxR1D+KHqv6J4avvqwpnxddIjtU089Na08tTxv5W7Ru/6e6lZ90IjrHPsIozJDh+oK7fWp3i9vr5474YQTavf2y9158+Zl51HL22a77JHd3paia30QVVopOnz9UfSu3asqpxRH+rhnH6rsvfj8gQ98oCcGXn311WlppMi+Qd5TGGRPUV2jETJx/Me2+79tu4Fc+/xiKEXTG3yZ4/0purb8meu3f07pIP5woY/Lv/nNb3qjofS71VtVH91VX7z++uve+dJra0vniDILs5jInrr1mN5v2qFRGoAR/jAxgk4FoyLZIiR1zm08qqCIh5IoslSYFR36alAlKlPvF7mpikFdzqnw2G85DQBVRDkFsdxUIaQGjMSZ+VHnLH/kX+4h3iowqvyoW6jI3WOPPXaau8rg8dAV2VskjtQ4VaMg5yhzo6xRp3RzxhlnTCvUcwSdCp2i+T1l6UwF5uWXXz6tYVBU0VSF1VfIcaUru+yrYFV86ndVaGog5h5+MZSiCi5XhMjvJmH3dqoHd++9956WvorSv8oOxU3MRB8NxDPn0BA+NTi9G/q7bGjfk08+WdiYjeOszO9clmr0Kd41lDmnV9rbr+uDDz44+8trma0zvV8l6OS+etLjhnUclvhvpW/lU/FJHb5xlVOel7k17DIvt6yOOVT97cv2srKtzA2NOkgddT4yqUc75/DlkOwqK+OL3CqrW1NpRSLTtmjxHJp8FJJNNgfZu1V07QVdrpiTO6lpA77+KPLT7uWWU6m2jcrcpiNtiuKu7j2FQeEpqmvqTlEo+oCZssfiOJ5nbu/4MseYl519/rT3c86Km/PPP3+jeiG1vYvaKfqAkRK6qfeLbFJbL1fUiUnRR9MyLvH9SflAWcQhdW9iBJ0ffhXD9X8rgWi8a9WhQuvb3/72Ro0muVPVqH/55Zd7Y929n/F1nUJflVrRV/3YTf2d2wBQxVf0fnxPdjZZstvcKStAytjnNhLqFCpllY8aZGqYFR3+i5aFRedUo9m7o/QVF0T6OqiGddlR1Hj58Ic/HJ555pmyV3r3y1bgq0qncWEle++9996kX/GPvkIuqnT9uH3Psey6zvwAG9JZNgQlV4TIlqJKNg5r2d8aSlf0ISm1b1AZl5wKqqxSUhmREgtFPUv6+JRz5LJUb2BTMad4UBqsI+pzbK/7TI6gK8qrZWna31eZo3yXOnzjKrc8j90bR5knG6zR6sMcX9fNa/rYJaEfu1P0t+asVh1WbhS97+9V5Sfzx39I1odXfYDNOYryo/kfzwf27omHykl71p/VA5ka4ujdsWv1Vm266aaF7nm3TdCVfaz0z/rr1EdJX3/4d+LrorrF7I/PRWlQH3PVthjnYXaVpf/cdGls4ikGZWFTWaD0pPfK0pUvc8z9snOdtpfZpDSj3va4TfSrX/3KHik8awTcrrvumkybZR+uCx0MoTf1oCxs/v4vfvGL/kdTiUBbG0Jh0SiYnN7+SfhAWcah7P5ECLo6hX6OmFKFrUUpfATbdVFvgIeTI0pSYsK7ZddK+OZ/6pzbAKizGqj5p6GflqjVqFQBH2dQe9afi7r4LVzxOYed3M4tVFKVT0o8KP7LepfUW2nDYGL79bd+K+rRLCvIvRuxvVXvpNJ9VVooapRWveNt1bWvkIsq3VTjw6cRuy4TZ7G//otmWTzmihD5XcU59t/+VmVZ1NsmN1PlRIpLVSVQNjzHGlxmW9E57tnLeUfu5LIUR+u5UnmhYehK08rX55133kZfZy3O47MWU9AQmXEdYiKbqtjEeTUOR9nfVaLdN67q5kcxS9lVllf03kzKPIsra7SWhV33m+S1so9WsT859ULZx7rYrVTPkoVXZ583Unnev6M4So2SKSpL/fv66FFW96qnLne+Zmx/zMD/bfkh/hDonym6HrWgk6j3duijlcrbcR+WN8rSf9zT68NQdF0mzuJw+o6OMhHoy5wiv/y9nDwW21BWZ6XKI3PDymNvg79WPpD7uUfuOhvWC16WfjTcU0O8vS3xtWzTB842HWMXdEUN0xis/Z37pabsC7rcUYMlVdGqMaJGiflZds79Oq7EYIVBmVt2P2WXT1S+IW7vps5FX0FyxVed1URz3cwtVFKVT9UKf6lezFSFm6psywpUHzeaO7LNNtv00k9Z4W/Pp9JpTuMi5p2bfsx/n47KmKin0ArHVBqz33LsNsYqMMt6dHxDy9wuO1dxtvD6c6rcUXj10SR1xA0Ps03vlvWu+q+t9rydc4eR+7LEGmkpO/VbHZayp6ic1ZxHlXlmb9lZvQXqNRjXYQ2IHDYpQV8WPt0vKk8tvL5xVTc/yo1xlHlmu09bZeFvkteqBJD5leO2n3tr7xWdc/Kwwi2x+f73v7/3T9c5R1kDV3bk+Kv5ttp2qchu3VNvSO6Cb3EdUOam8oMNWRVnjUJRvKici4d/ezc0ekG9mEWHrz/8O/F1Wd0SuxmPXihrjMfvjeJvyxtlaTS3fDQ2SicSa6nDp/XUME1f5pj7ZefctpfZlfqAkiN4NPS5zBa7r/J0xYoV5mXyXCesmkahMr7sSOVjsy3Fvczdcd4fq6DTl5eiuUcG086az6HxuyqAqo7Ul0pzr6qXxhoF9nzRuU7GsMKgyB1/L7cBkFuQyu3UF+WcnsOcYYMWJ7mVSw47faVUI9fzseuq4Y+yxypqe8efU43nVKNVFZ96OasOG7JZZeell15aGD7Zqg8Pmm+h9Jw6/NfvMiFR9r5PR2WVbkqEeKZ2XVUA+t6tVDzUESFllWxZuHVfQ5vKGjIKQ9VX8tQHg7Ivlxp+q/xkrOJzTgPGN3pyh5XVYZkSK0pfsc3x32oc5zaMU/HT9Dcru3MEnfxIDZ2Lw+b/Lhsp4hscueW5hXVcZZ75n1NPNclrct/3NHiO8bWGrlUdWogqfq/o75yPSzZULrfHpGpOfM7+uH6YZ5HdGumQm4dy61ytCq7RA6pX4mHD6oVQ47zIlhRDX38UvWv3yuoWH8+q5zTnyt5RD2iqMe7fHcW15Y1U+k99oLVw+XPV6Cff65eKB1/mePeLrnPaXp6nzd8rckv3UlMT5I5xK3tf91O9wN4WXeeGNScP+ZFCKftyyqTYznH9PXJBp4yrBoYmmPuVJ8uAavyrvizlHlWFpfmT6uGxRoE9W3Tea6+9wrJly7LMyknU8iO3AZBbkOorkERB2ZHTQKsSJd7t3Molp1BJMcspAFKMVHkVsc6xXwW63k0JLd/oLvLHmFWlM1W+WgAlXvXN3tfZf/0WszqHZ5R6t6pQj/NHqifTV3qpgrKOCElVskU8qr6m5qRPxWscbvu7zJ7UO/Zuzkq69sEgx06FP5elBG5qDo/mkKo8MFvLzqk0XxQfg7xneSpX0MnvVK9YWRjLylYfx3U5jKPM8+xT/huHsrTt3Sm61nwaDYM0d8rOqR4huau8K3FS9r6/r33V3n777SJzevf8x6pUWeQdMAHo/fHXOXWTeiP04cS/F19XNfbNppw6S26/733v64k2TUWJ6y7VIfpAEduQ+hgs/339Eb/r/07VLRYOnwdTH5Xs+VGfLW+k0r//WOnDX3at8laireywtFY1lcGXOWV+2f3cOkM25ea11AJExs38LzrnfEA1RrlhLVrQzNyws/KBFk0sssnfyx2+be6O8zwSQefh5FxrRUKBlpCLC58qWLmNF30NLzusUZCyNafgNvdzErX8ym0A5BakVfN5cjNHrl25lUtVoVL15aTqfXGvmixetBxzrv3qMdaS0amx/SaCUuxy0pnEp55Lfa20r985FaelSZ19Okq9mxp2UZRHUj3gNlSxqjLLzcfyP1XJ+vDatf/yWWR/jhhI9QDLzSKeuflNPZfaiqPssPyRkw/kRi7LqnD79FLEze6p53lch+WpqrB4+1THFK00a+EpOysNxyuT+jhO5X3vv64tTsv8yonrJmWetyOnnqqb17z71kAtC6PuVw1Fq8q73m2VnWVDumWXfVzKDZPEoUSi9yO+zv3Qa+k0ft/+riofjWtunSV3U25K1KmnTs+oftNwNe1RmDpyy4OistC768Wcti4oG+Lp3xn1teWNqrRi0wksHqvORQJbYfMdE2UjPoyBL3Oq/MspR8zd3LSVGjJp3FJ2VTE1e3TODWvuaKXUSBuzWWVS1RQMb+M4r8cm6D72sY/1VprRajOHHnpob/UaZQZVSqkeiSpY6jVToWqRUXZOFTJVha3cbIOgS4WxTubIbZjkFgBVhUrVoi9V7ytsVY3Yoi/BufZbmlJBVjY0zxpoKXY56cz8SjXy7ctgVXzHecdXyKl31eDV/n5mS9W5rCFlTPR+1RfoqvjzNtSpEMSgamJ1jhjw7Lwtdq1eBH3h9EduZSQ39FHruuuuKy0L9cEgJx/I/1yWVeGuCrOFPZWWPI9hXFueqgpL7HdZL4WFqewc92L4OE7l/dj/cZV53g7FW1k47X7dvObdNwFlbpWdU8PL7EOZvuqr56LMDbufKmfs41JuPspprOe6ZenU7Cw65+SjOnVWlTDwcZVzPYjyQA1v2+9Sq5KnPlzm2DSsZyxvVKV/PzqnKE7je2VTFOwjbVld6sPpy5zY/fjv3PQp91Xv56zQniprjVtsh/+7immTsOaWvVUfZs1OlRVtOEYi6HLhDgpY1WTHqi7snMIWQTc9tnIrl6pCxSpay0zxuep9WVbViC2a65AzFCa2RRtr5sx1m04rZC0y4f1TxXfJJZdkzSUt8i++5yvkqsZDnS/jsrmo8WANoqqv8Dnx57nUqRByhpGkKihj6Nl5W+y6aJiGtpVQBW3PVJ31rDY2n+n+S1V5weyoCndVmM2dqrRkDIdxtrK7KixFfqsxWTUUzsLoz34khG9c1an3xlXmeQ6Dbnx5t3WdWz+UNXLtfWvkqozx8VB0XbZIjx8CmhoibmFQ4zZneFbRhxxzw58tnRbZbPdyVow1JvZO6ly1zLy3L+d6JuWBeKre1LQC2Txpc+bi8FveyKlr7KNDKi78b3H6Ux2lDxF6JjXP3Gz0ZY53t+g6p+1k7upctWen5UX/jr82bkW22L0cpuZmblhzy96qUQ1mY6oX0mybhHMnBV3qa6sSYNUGsTmFLYJuevLNrVxShUqOqEq9b1ZVNWLLFm+oalhZBvdnpSmlmbpfF3O6+70/dp3qGbTw55x9hVzVCPeVjNmROscfTawXUe/kLEBQFX/e7zoVgnoJq5YrzhEDnp23xa6LGpK5lYe5YWdNPFfFqkZQkyOXZVW4q8Js9lalpSZhyH3Hyu6qsJS5l7OctYXTzr5O8Q2O3EbFuMs8YzHoxpe568+5jV2VjfFhPXzWyM11K24wy13rAUkNQ/T+ewFo8V50zk13OQuS5cwtyq1zlUbr7lPqw1903Uumld4AACAASURBVLQ8UDmmhW1MzPn8U+TPJNyzvJFT19SdohDXh/7jac7cTl/mFKVJfy+n7eR5K65Sw9HLFocyN4ybtyG+zmFq7uWGNbfszWkPyN467X2zdRznTgo6gdSwzT/84Q+9PcU0JlyFxpe+9KXevbIhncqI+gqn5+NEF/9dJ4JzErXcz02ETQvSOIENOnPkVi6pQiW38RnHR5O/i3hbo6GJe1tvvXVy8/GYf92C39uknsG77767cSNftvh0pDRadVgjyNuRuvZDpzzXogZW7HeddFCnQvBhTtk+09+KbKorir0NKpPOPPPM5LzNmKH9ncuyqjGayy4nLZltgz7PVNDJHj+nx8dB6tpWD/RlalH5UhTe3PhJ+Z/7W8qmnHqqKF0XhansXtWS/RaOoh5+m4NnizDklp+xW2qkqmySXzm9YApL1Qq1ZndVHjIuOazLPjqaGzrn1rlFI1K8O02um5QHYq/y38SccZOwjuejNrFpWO9YfOWkf5++LHypczxixdJ57scGX+ak/NFvqbZXGTuF55FHHgnf+MY3+vH22c9+NlxxxRWl9ZGGnqq+suG0KbtymJptuWFNlXPmls65+aeOjd79UV93VtDVAfniiy/2hjblCDlLmAi66YRzM0eqUMmtJCweZnIu+gqsniQNoWrqrgqw2267LUtoqaDUpOimfim96utZ2QeK6TG08R3POqcR7nvZcmy2oVO+grN7G1sy/a86jdw6hW1uhZATvtQzZY2xqiEsKTf127e+9a3aiwbksqxqjPr0krIzJy1Nj/HB3BmEoFN6TX2VLgu7GmC/+MUv+vk5t1GRy7XM3zr3i8o8I2+N1pR7dfKauevPuR814sasLRLh81WuW7HNfnGTFA9vd+5w6ao8ZG7msFY8VKWh3Dq3TnvFbKw656ZbKw9UT2lrAn1cL0pjGnlSd5RLlY2D+t3iK05LZe77XraisMb3bK5nnXnm5nedOi3V9jL3ZnJWXXPqqaf2hV8czqK/c5nKrtywVuUbC2Nu/hlGD7fZMMjzrBZ0EnKHHHLIRgWMFmnRRPeihOfv1SkgrTDw7xdd5ybCugVpWYIZV+ZIFSo5k1SLFjQpC2OT+/pSqAZFURzl3JPQ0ophahhWHU33wTI7VNBoI1oNM657+HRklW6VGzYPzvyvOutrrP+S7nvtUn7lihD5X6dCUAOuyubceTAp+8t+Sw0Hr7LLftcqoko3uUcuy6rGqE8vZkvROTct5dpf57lBCDr51zSe9LXdmOSW55NQ5inMOfVUnbxWFm+5ZYgfbmajA+LhaXbfmJedvVvmf+7HJYUjt66sykPGJIe1wlKVl3IbpKk612yqe65THig/KQ7KxJzCqt9Ub07iYfGVm/5zPzZYerUPGJY24167FJPctCm/hpEOZJvqGLVDfKeIWCm/WhjLzrlM5U9uWHPLXrXRchZ+ke25bqbiati/zUpBp5UJNQnXJz4VJiqM9YXIGgVlCVD3EXTTk+YgKpecDFuH/XQr8+789re/rfWVKU4rSk9VczXNkvvvv78nSmI36vxdNZbd/PJnXyFXNRzsPf8FMcc+Fejnn39+r1CP59WZm0XnXBEiG+pUCFYxp2wfVqVn4VTYvvrVr1ZWdCkb49UVze2icy7LqsaoTy8p23LTUpGtM71nZXdVWHL8abpIirHJbQBMSpmXkzfq5LUyxrlliH248z38cdrKdcuEoG9oW69ImZ3+vrbisHhNnW04qH+36DqHtfyJwxu7NYg6N3Yz9+/c8kDl/89+9rOkmDOmEjapvTBzbRv0cxZfddJ/7scGC7uGKNpCP5Zec8KRU36YH4Ou21RGKs3HQ2htnr9xM/+LznWY5oY1t+wVX6szimzz9+q4mRNvw3hmVgk6Jb6icb1KjH6J8JwIriMqchK1Ek5ugsktSKsqg0FnjkFULjk2ffjDH+7NaRhGhjA31YgoGuvvM3jVtdJVbpzec889MxJ1Tb5u+nRUlVaMi8656Vl8ZJc2tdV1PJfFuxlf54oQuVunQsixXYumqKE4zEMfldRgrUpDqd8POOCA3hyAKjtzWVaJIJ9eUnbVSUtVttf93cruqrDkuqu9ULUoTSq8Zb/l5v1JKfNy8kadvFbG2Au0Mna6b70UNkTSejFid3MWsrKhmrYwkcql3PiRfzlsZHNu2s+xOce9QdS5Mc/cv3PLg3/+53/OEnOWFnLLtVw7B/GcxX+d9J8bNxZu2/xdf+fMM7dw5ZQf5segBJ2mX2gOnebym9s6K1+pJ1a/6zBu/pn4ug7T3LDWydtWZ8R2xX/XcdPiZtTnWSHoVIFoAYk48SnClJjUmPZHTgQj6DyxDde5BViqUMnJsCo0Br1i1/TQbNiHRfPhcib2xpnf/t5jjz2CJgjnHFo4pGnjUf59+tOfDq+88kqOV71nfIWc2xDRi34IpYWz6qw403CS3CNXhMjfOhVCTgUzig8G4qB5QZoTV8Wu7HcxvemmmyqR5rKsEkE+vZTZpPt10lKl8TUfsLK7Kix1nG2ySIo45DYAJqXMy8kbdfJainHOMFMx1BBtDZNWWi/7IOQXXEqlS7mlLY30jK2UmbLR/6b90lJu22+5ad/Sqb1Xdq5ybxB1rg9nnevc8kBhU/xpVFTOVAY9O2lDLy1v1E3/NoSyLH6L7tcZCqz4yik/zJ9U2ys37p988smgBeDMTTvrA7aEqNrbdhg3e6boXIdpblhzy17ZmZsX67hp4R/1ufOCTo0mFSQqJOLEpASoyjo+ciIYQRdTy18xKFWo5Fb0g95TZ3po3r1TVoDF6anob6W7OkJGy6bvueee09JqkdtF9/xckXdDUHzlK+SqhoN3IfcLu7evbgMqV4TIjzoVQs4cOrmpBtwoDn3J1KgBP/zbc6u6zhmak8uySgT59JKyq05aGjRjK7urwlLHX6X3Jouk5DYAJqXMG3TjK8VYo2WUdlPpSL9tsskmYeedd+49V7aASe5iTZofv9NOO/Xcyp3La2HIbUjmpn1Lp1Xhr0pDbRB0qgO1GIoWRZFQK2qLxRwmbeil5Y06dY3STu6QYB/+YaVN+ZFqe1laLzun6irFadEUE+Pmwxdf12Gamw+r8o0PY05e1GiBBx980L82kdedFnRaIlkNyTgB6e+yBKhYyolgBN309DyIyiW30Vj2tXa6VYO5k/owUJS+/L26i2ykCk7vbtG1zTvJCbVnndsQMXdzv4qbjXWEpvzIFSFyfxgVQt1K1bg0OadGEBi/srMNJUv5m8uySgT59FJmj+7XTUsp2+v+ZmV3VVjquttkkZTcRkUu12GXeYNufFUxzvHP0llVr4V6BuzZqnOTxlluHOWmfUunKVtz7BxEnVsVT2W/5zI566yz+r02dealTtLQS0urdeoa46a6LxXP/rc688zN/VyRI3+aCroFCxYEzYvztvrrsjn8xs0/G1/XYZob1tyyVwxz8mIdGy1exnHurKDTxFp9kYsTj/2tpenVcC46ciIYQTed3CAql9zGZ9l8iulWDe6OvjD++te/rj0Ec4cddgjamLbO0bSRX2e/IV8h5zZELAxq4Krn2/JT6twkrnLTgfytU9j6MKdsrtujaFxmcm7aO3v11Vcnvc1lWSWCctnVTUtJ42v+aGV3VVhqOtt7vE5jVGkrt1GRGz9N8lGdcA668VXld52l3asWMLG5cak8bb81KY/V06K5teZG2Tl3URRLp2Xu6P6mm24aFK7UMYg6N+V+6rem5UHuKtL66D4pQy8tb9Spa4ydpkFoOkQqru23Jh9tckWO/Ggi6Krme2vV5bI558bNwld0rsM0N6y5Ze+KFSuSQtXsHcW8eksvMzl3UtApcSmRWWTEZ5tsXQYup7BF0E2nN4jKJTeDKU61h5uEz6iPl156Keyyyy6l6StOb3XSShwWfRnT1hqxm2V/1ykcfYXcpBGeu4pXVWMsDrP+zm3kikOdMOc2zNSY0HybUR8Syhq6ouHgZXEc36+Ku1yWVSLIp5fYBv93lT3DZGpld1VYmtqgD4USVj68ZdeDblTIn2GWeYNufFUxXrVqVW9j7zJ+dl95sYqlX73S3is7a0GSuofc10iLMjftfm66s3Rq7xWdcxrfg6hz67Kw55uWB6qzNQSzKMzxPeW1SVj10vJGnbrGOCm8GvERhy3+W+m8zvQMcz9X5Mi/nDRl7uqsTo+qfXlTC7gYtzis/u86THPDWlVeWBhz889BBx0UVF5N+tE5QafMc+655yYzT9WwtJzCtk4jPSdRK4HnJsKmBWmcGMeVOaoKFX3l9Bm+7FoLiGgVurqHvpgpjiWW4kNxlTMvSQWBNtBUIVxmn90vSyviXzWUSPbVaeTXKRx9OlK46x4582CqPp6U+ZkrQsS4TphzG5FyN/Xlscxu3decKKUNpRF/KExbbrllVqX98MMPJ0cYWNrSuSrucllWNUZ9evH+x9dV9ngmg762srsqLDPxN3eRlNzyXLaMs8wzFoq3OC7jv+vkNXM3dc5ZNCK3t1y8q8rjJkPazH71hMc84r9z0l1uIzJHeOa6VVXnWhjrnGdSHqju2HvvvSt5iu8kDL20vNE0/edMUchN53Ec5bbjxLJuOtCiW6k8VdWLbNzifOL/rsM0N6y5Ze+yZcvCXnvtVZkOc/JiHC/j+Ltzgi5nBb6qOU3WKPCJLr4ua6QXRWJOopb7uYlwJgWpt2/QmWNQlUtuz4+Y1S3sbdhUWcWuxTByRYg+Hlx//fWVvSllaUWLrXzgAx/IXqJYk3KregfqFI4+HSmNNjmq5q7kiOMif3NFiNJAnTDLryqbfV7XZqn6Op972EbxRULdKo/cYTX64JDT6KmKu1yWVY1Rn148o/i6yp5clk2es7K7KixN3LZ3lO9zFknJLc/l7jjLPAtXTj1VN6+Z22XnnPo6dxijet/L5sxbGm1aHsn+nGGdOV/yc+rJsvop5pjjlsJetyEf+1P090zLA334UjgtbsrOEhTjHnppeaNp+ldPl8r9sjDqft155hYnue04+VEnHeR8sK3qHDFuqXDXYZob1tyyN6duzJnLanEx7nPnBF3OKnYIug3JbtCZY1CVS07FbAWECnsVhOrFqjr0jCbv6t0TTzyxsKFuTDQ/LMdNNe5uvfXWpKjTFyA15uPDKsQ6Wxs8/vjjSVEnIaEx7zmH+S8eTRvhVXGVGo6RsjGnoLU0UKdCkJ915u5o6KNEu+K56rCPBWU8LX+oEaPGTM6hxXj222+/ZEOgakXOXJZVIsinF2NfdG6alnJ4VD0zCkEnG3xZUsRA93IbFXKvKh95PwZd5hnTQTe+zN3UWfkqNRwtZ9Ef737V/m4zSZtVtiqOchrMmk+teXw+TuPr3I8+VqbE78d/59jlOeZcz7Q8EM+q0VQWjnEPvbS8Ubeu8RxTH20UPtVLTQ5rsxir1LlOOshZfbftgu6ZZ54J2qYoxazJnNsm8TiIdzon6HKGrlR1bVujIBXJZb0uRZFihUHKPf2W2wCYaUFqNuYWBLl2DbJyyWUmbmrgnHHGGaWL3Ci8ahgfccQRvYybGqppTNSQf+CBBwxV8qzGXWqBkLIvzBaPsj93vlZVJZjzhdgCY/6L4UwaOmWreBX1UpnfVedcESLb61ay6nGToNe7Of+UFi6//PLesttldmtBE1Vucq9sqKbPH6lFmWI/Ul+ycxbByWXZdkHnh9PWyQcx79y/q4aN5Zab5t+4yjzz38q+qjxRFC6VgRpm/NBDD5lz2edUQ7duj1pqaNtMGs0WmKqN5nPaBfrgprKxjHOduseXKWXu6X6dhryFters64+U36m6RXu06oNm6n37re5onCr76/xuebNuXeP9SPV4NZlnbm7n5tu66SBniHFVnjJuFodF5zpMc8NaVEYZL3/WfsZqfxXZZfea9px6f0Z1PRJBl8rQgw5ojhhTBBbtmaHGshKCEphFZtm5zubDOYla/uQmwkEUpOKemzkuvfTSrGgaZOXy5ptvhm222aYyHnz8qDJVb4qtKKn4VGNWcW2bypfFvQXQf5Wq03NW1jOcGjrjh/DU2RTc2+jDr7DVmVTt09FM8mhZj9dMlv7P+XJmYa9TIVg8+7CbO1VnLYRz55139ufGadVTxaE+Jtjm82qMFe1tKX/9wgqKq5xNwfWePkaYWIxtzGkIjFrQSSyP4/Ccqr4cD8q+1Ip9ueW52TKuMs/8z60P1KuistUOiTk1et73vvfVKn/s/VSPVd1yKVUH5fZ6mV1FZ4U7taBHTrvAhtrHedn+Pv7447NGh8g+G8Zt75adJ1XQKQz6cKpys8x2u19VdxfF16DuWRuuSV3jbSga7p87xcO746/VPjNGVec66cDCXOVm2ZYFSueplebNXcWrhFXOkVtGqR2Yc2g/Y7Oj6DyTj9I5/g/6mcaCLjeyBWmUm0DnfnlXAaKCWRWACml9edNqgkpcRRFbdO/8889PfrW3yMplVTV0ytzTXCoVAkU2+XtVX9zln3++7Fr25xy5DcfcJWA1lDEnnGV2F93XXir6UlZ2xA39ssIqfr+soEk1ImJeVbaZn7GNFs6qnmd7385+QYKyXkR7NnWWUJGwMDt0TgnZlFv2W1Wjx/uleYh6vs5R1TDz7te5rkov/oOTvm5KEFQdZY3U3IaA9uNUT15VOJT+tMps2ZEbJ1XlTpn7M73vPyzMtOFVx5ayRVLqCjr5OY4yz8Kam0708eK6667r1X2aA3f44Yf36s26vWnmr85FvfxVX//9+/66qNGstF+1vYd3I3Xth1YX5amyDdDNzVTPx7bbbhs0Dzf3iOuQInt0r05DPtfvnN4N+V1Vt6gs1uqtZbb7+7llZm4Ycp7z9ZvK3JlsMF00Z3Qm+Ub2V4kSz69s+kcRh1yhqDbznDlzgnpbdejDlOaev/e9782KU9mnOqNsGzFvW1k7y4dR1zn5qGpeo8I17rmbPuw5140EnTKgviLFEMv+rpqzlmNo7jOpwrLMPruvCFS46oTN3pVI0bCr+BCrY445JotV7ko6uUKsathRbkGQ+8U9t0GQM0xMHHPmqRj/nHNOJo/FktJE1XBO2VqU7qrmShVVxhoWqp6G1FEk6GVnbo+P3I6XIy5Lvyk7/G/xUKeUkPXvlV3rC1tOnNozVY2oIn+qGmbmdu45R5B7QSd39QWzSoyW9WDkzvPMFWJVvVq55U6VMCyKi5neUzkbz8cZ5hL/3l75XbRIShNBN44yz8LiG665ad6e0wfSJuE1v+PyQ+42LUOK6qGq1fjMjtyzLX5k4ffnlHgq+zij95uIlaKwelvsOvcjam749VzZqBTz08457b86e7VpoajUR9k6Ych5Nh5mW6cHtcj9+ONF03nmclvlxWGHHZZdV9bJB0XtDIvTnLPqgTisOe/pY1zZh85cQSfhXVUfp6YyyM5xDvEtSjc59xoJuvvvvz9rWKJFXmoYUo6RdZ4p+gJidqTO+uqoTaM1jCo1pr/IjVT4JPJUmBa9F9/LGeKnDJwrOFPD+OqMXd911137wxjL4kKNmtRQlDisuYWYCu7U/LTY3bK/NW9OYq3qKBvqp8KhbLGRospdAqtoWK/3XwshFKUN9bQ999xz/tH+dZkIqeoZ6jsQQi+NK65ko+elxTeqxKR3x1/7r11yt87QT++Orot4ejuLriXW1Sioe1RtmlrkV9E9zZvL+bJeNILA93jE9peJhZyPE3KrTr5MfYBQuZObDzfZZJPw8ssvx0EZ2t8KY9HCRCqXq+Y+DsqoIiHWVOCMuszzDOrss+fzQZ3yx/tn1778MHebfKSRe0XCNEdUmC25Z7EqGlJWVvaX5WWFV/WTRG3do2pZeWMpm+p88Kuyo055kGqHmD9ik/vhW2GaaXozf6vOqg/jRanEUvWn2opNDj+SYKZD+spGB1i8F51VBym/VR0qh9R7WORG6p565s4888yeHz6sqXfst7K8Y7bmCjqV+6ojJf6Ltqcqa0eZHfq4WdbeM1sm8Zwt6PRlSZFz0kkn1epKNUCKZL0rN5YsWTJUFlpgQgnD/K46S0j5/cxSX9Fit9RoKFoFTxP09UV76623zrZDbssWfTmINzFU4aENrW14S2xH2d+a9/PYY4/1x+TLHVVE8qfsnaL7KtSeeuqpvjsWgSqI1dOkYRV1utjViJ03b17vXbmROlT4qICo474PgzJnUe9pkZ9FvWbmlmxWb53mTYmjsYw3GZedGo6rSi91pNKZ3PjhD38Ynn322Z47YiTBEm8yrnQugS+3qg719Nx2223JTdE11/CCCy7oNcjjNFjlvg3hrDv009yVfcpLmgtpzOucZbuGgkkoV6Up81NnVdoSK3XKDG9XTq+q+Zcafh3P0VOlo4aDyhjvn/jqy3zqaJov1bD8wx/+0C9/LN3VLXdU7qn8q5uGUmHyv8kuxbMqeH1JTcVdzNW7M8jr+CNZU0Enm0ZZ5sUMFG8q63yaS10r7yitzvTwQyVn2tAVe0sTOs/kA1MqXKpX9txzz2msVH6rTlQa1aHzeeedNy0vi6vez62fzBaVlddcc02tD+tW56qhqrqryaH39LGx7vQU5cGido1sUF5W26Juua82jNoyTcNSFn65pzpe9aDNvS9K/wqT6lO1GerY4D84NJlnbvb5udtF9qXuWTuzqt2QO7/R/FK5r4WRFKc6FNaij5j2vD8rn6pHL9VuyhV0es4+1lq7QHlGhzp94naUt0Mf74tEYO/lCf8vKehSDU4PoOm1MrAyw6APJSZVDnFDKLZTDSMtclCUGdVg0u/xO/5vJZS77767n3gtHPGwPf9O7nU8ByQeqpXrjj1n81pSDUp7NnWOh5PM1C75ZbYZv6Kz4vSRRx5JipHYbs2tuuSSS7K+RpmfJug0/EVbBCgP6MumCm9rIMT++L/jAs3cLTpb/lI6VQ/D6tWrew3U/fffP0u8Kv3dcssthenX+zeTOIrToXc3vlajRT1VKpRzj5nY5rmXXeekLdmqMkBCpk6jQj1ROfw9C8t/9pVUH5JOOeWU3n6EZWGw+9ZIzGk8mz/2bt2z5fPcCrTM/WGU8YMKm4+XQV37RVLEbibHqMq8Ihu1sX3Vx0ilR/sSX+RG3Xt+kaicxX5S7qsssvp7puIw5Y9+a1J2KL8ob6jMKWp/pPycafo3v5u0vWZaXsflgdWBZeVHzn0rq1LMcn6zuj/Hz6Jn6tghoaQ2Rm6v7ExtK7I3vldWXt1zzz2VHw5UF+pjalHPn8SRRFLsn/9bHxtshFwqrnLrIwuL0lduZ0Nueypl37h/Swq6cRs3U/9ffPHFXu/Fhz70oV5iUoP8s5/9bK8BpYq3qiBVYpAw3GmnnfriUI1v/a37+p1jtATUyNHXTE1W1XAAi1sVDopfFSxHH3100LDg1JeeMqut4FT8xocaCSq05K99wfZ+SgBWpSnvplVmRV/p1GjX1z/NI/Fh/NjHPta7pwKrSfi8/1xPJ6D408cczWfdeeed+/Gs9KUGrBokEmA55cd010Nvewg1NJWW/KG4/Mtf/tJzW2WUfTxQOpMdSu826dy/x/XkEbBhUNaomKmFwy7zyuxT40zDHn15pzwgoXfOOef0Fj8oe7fJfeu5yF3sp8oPNeSUbzWCQQyHfcgPjaLRBy0xU1ntG60qx5WXVbaojKlTVwzbdtyHQIqA2kU/+9nPwqc+9al+mlb6zm1rqX5Te6aoLFF+ya3b6go6C5PcVx0a1+lda091WtBZZHKGAAQgAAEIQAACEIAABNpJoKmga2do61uNoKvPjDcgAAEIQAACEIAABCAAgRERQNClQSPo0nz4FQIQgAAEIAABCEAAAhAYIwEEXRo+gi7Nh18hAAEIQAACEIAABCAAgTESQNCl4SPo0nz4FQIQgAAEIAABCEAAAhAYIwEEXRo+gi7Nh18hAAEIQAACEIAABCAAgTESQNCl4SPo0nz4FQIQgAAEIAABCEAAAhAYIwEEXRo+gi7Nh18hAAEIQAACEIAABCAAgTESQNCl4SPo0nz4FQIQgAAEIAABCEAAAhAYI4FcQXfHHXeM0crxeY2gGx97fIYABCAAAQhAAAIQgAAEKghcffXV4T3veU/lv4suuqjCpW7+jKDrZrwSKghAAAIQgAAEIAABCHSCwNlnn10p5iT4TjzxxE6Et24gEHR1ifE8BCAAAQhAAAIQgAAEIDASAlNTU2GPPfbIEnRbbbVVeP3110di1yR5gqCbpNjAFghAAAIQgAAEIAABCEAgrFmzJjz22GNhl112yRJzNiRTz//1r38Nq1atmjUUEXSzJqoJKAQgAAEIQAACEIAABCafgATZBz/4wVpCzgSdP8sNudX1A0HX9RgmfBCAAAQgAAEIQAACEIBAZwkg6DobtQQMAhCAAAQgAAEIQAACEOg6AQRd12OY8EEAAhCAAAQgAAEIQAACnSWAoOts1BIwCEAAAhCAAAQgAAEIQKDrBBB0XY9hwgcBCEAAAhCAAAQgAAEIdJYAgq6zUUvAIAABCEAAAhCAAAQgAIGuE0DQdT2GCR8EIAABCEAAAhCAAAQg0FkCCLrORi0BgwAEIAABCEAAAhCAAAS6TgBB1/UYJnwQgAAEIAABCEAAAhCAQGcJIOg6G7UEDAIQgAAEIAABCEAAAhDoOgEEXddjmPBBAAIQgAAEIAABCEAAAp0lgKDrbNQSMAhAAAIQgAAEIAABCECg6wQQdF2PYcIHAQhAAAIQgAAEIAABCHSWAIKus1FLwCAAAQhAAAIQgAAEIACBrhNA0HU9hgkfBCAAAQhAAAIQgAAEINBZAgi6zkYtAYMABCAAAQhAAAIQgAAEuk4AQdf1GCZ8EIAABCAAAQhAAAIQgEBnCSDoOhu1BAwCEIAABCAAAQhAAAIQ6DoBBF3XY5jwQQACEIAABCAAAQhAAAKdJYCg62zUEjAIQAACEIAABCAAAQhAoOsEEHRdj2HCBwEIQAACEIAABCAAAQh0lgCCZodRoQAAIABJREFUrrNRS8AgAAEIQAACEIAABCAAga4TQNB1PYYJHwQgAAEIQAACEIAABCDQWQIIus5GLQGDAAQgAAEIQAACEIAABLpOAEHX9RgmfBCAAAQgAAEIQAACEIBAZwkg6DobtQQMAhCAAAQgAAEIQAACEOg6AQRd12OY8EEAAhCAAAQgAAEIQAACnSWAoOts1BIwCEAAAhCAAAQgAAEIQKDrBBB0XY9hwgcBCEAAAhCAAAQgAAEIdJYAgq6zUUvAIAABCEAAAhCAAAQgAIGuE0DQdT2GCR8EIAABCEAAAhCAAAQg0FkCCLrORi0BgwAEIAABCEAAAhCAAAS6TgBB1/UYJnwQgAAEIAABCEAAAhCAQGcJIOg6G7UEDAIQgAAEIAABCEAAAhDoOgEEXddjmPBBAAIQgAAEIAABCEAAAp0lgKDrbNQSMAhAAAIQgAAEIAABCECg6wQQdF2PYcIHAQhAAAIQgAAEIAABCHSWAIKus1FLwCAAAQhAAAIQgAAEIACBrhNA0HU9hgkfBCAAAQhAAAIQgAAEINBZAgi6zkYtAYMABCAAAQhAAAIQgAAEuk4AQdf1GCZ8EIAABCAAAQhAAAIQgEBnCSDoOhu1BAwCEIAABCAAAQhAAAIQ6DoBBF3XY5jwQQACEIAABCAAAQhAAAKdJYCg62zUEjAIQAACEIAABCAAAQhAoOsEEHRdj2HCBwEIQAACEIAABCAAAQh0lgCCrrNRS8AgAAEIQAACEIAABCAAga4TQNB1PYYJHwQgAAEIQAACEIAABCDQWQIIus5GLQGDAAQgAAEIQAACEIAABLpOICnoHn/88cA/GJAGSAOkAdIAaYA0QBogDZAGSAOkgclMAwg6RCuinTRAGiANkAZIA6QB0gBpgDRAGmhpGsgSdF3vpiR8EIAABCAAAQhAAAIQgAAE2kgAQdfGWMNmCEAAAhCAAAQgAAEIQAACIQQEHckAAhCAAAQgAAEIQAACEIBASwkg6FoacZgNAQhAAAIQgAAEIAABCEAAQUcagAAEIAABCEAAAhCAAAQg0FICCLqWRhxmQwACEIAABCAAAQhAAAIQQNCRBiAAAQhAAAIQgAAEIAABCLSUAIKupRGH2RCAAAQgAAEIQAACEIAABBB0pAEIQAACEIAABCAAAQhAAAItJYCga2nEYTYEIAABCEAAAhCAAAQgAAEEHWkAAhCAAAQgAAEIQAACEIBASwkg6FoacZgNAQhAAAIQgAAEIAABCEAAQUcagAAEIAABCEAAAhCAAAQg0FICCLqWRhxmQwACEIAABCAAAQhAAAIQQNCRBiAAAQhAAAIQgAAEIAABCLSUAIKupRGH2RCAAAQgAAEIQAACEIAABBB0pAEIQAACEIAABCAAAQhAAAItJYCga2nEYTYEIAABCEAAAhCAAAQgAAEEHWkAAhCAAAQgAAEIQAACEIBASwkg6FoacZgNAQhAAAIQgAAEIAABCEAAQUcagAAEIAABCEAAAhCAAAQg0FICCLqWRhxmQwACEIAABCAAAQhAAAIQQNCRBiAAAQhAAAIQgAAEIAABCLSUAIKupRGH2RCAAAQgAAEIQAACEIAABBB0pAEIQAACEIAABCAAAQhAAAItJYCga2nEYTYEIAABCEAAAhCAAAQgAAEEHWkAAhCAAAQgAAEIQAACEIBASwkg6FoacZgNAQhAAAIQgAAEIAABCEAAQUcagAAEIAABCEAAAhCAAAQg0FICCLqWRhxmQwACEIAABCAAAQhAAAIQQNCRBiAAAQhAAAIQgAAEIAABCLSUAIKupRGH2RCAAAQgAAEIQAACEIAABBB0pAEIQAACEIAABCAAAQhAAAItJYCga2nEYTYEIAABCEAAAhCAAAQgAAEEHWkAAhCAAAQgAAEIQAACEIBASwkg6FoacZgNAQhAAAIQgAAEIAABCEAAQUcagAAEIAABCEAAAhCAAAQg0FICCLqWRhxmQwACEIAABCAAAQhAAAIQQNCRBiAAAQhAAAIQgAAEIAABCLSUAIKupRGH2RCAAAQgAAEIQAACEIAABBB0pAEIQAACEIAABCAAAQhAAAItJYCga2nEYTYEIAABCEAAAhCAAAQgAAEEHWkAAhCAAAQgAAEIQAACEIBASwkg6FoacZgNAQhAAAIQgAAEIAABCEAAQUcagAAEIAABCEAAAhCAAAQg0FICCLqWRhxmQwACEIAABCAAAQhAAAIQQNCRBiAAAQhAAAIQgAAEIAABCLSUAIKupRGH2RCAAAQgAAEIQAACEIAABBB0pAEIQAACEIAABCAAAQhAAAItJYCga2nEYTYEIAABCEAAAhCAAAQgAAEEHWkAAhCAAAQgAAEIQAACEIBASwkg6FoacZgNAQhAAAIQgAAEIAABCEAAQUcagAAEIAABCEAAAhCAAAQg0FICCLqWRhxmQwACEIAABCAAAQhAAAIQQNCRBiAAAQhAAAIQgAAEIAABCLSUAIKupRGH2RCAAAQgAAEIQAACEIAABBB0pAEIQAACEIAABCAAAQhAAAItJYCga2nEYTYEIAABCEAAAhCAAAQgAAEEHWkAAhCAAAQgAAEIQAACEIBASwkg6FoacZgNAQhAAAIQgAAEIAABCEAAQUcagAAEIAABCEAAAhCAAAQg0FICCLqWRhxmQwACEIAABCAAAQhAAAIQQNCRBiAAAQhAAAIQgAAEIAABCLSUAIKupRGH2RCAAAQgAAEIQAACEIAABBB0pAEIQAACEIAABCAAAQhAAAItJYCga2nEYTYEIAABCEAAAhCAAAQgAAEEHWkAAhCAAAQgAAEIQAACEIBASwkg6FoacZgNAQhAAAIQgAAEIAABCEAAQUcagAAEIAABCEAAAhCAAAQg0FICCLqWRhxmQwACEIAABCAAAQhAAAIQQNCRBiAAAQhAAAIQgAAEIAABCLSUAIKupRGH2RCAAAQgAAEIQAACEIAABBB0pAEIQAACEIAABCAAAQhAAAItJYCga2nEYTYEIAABCEAAAhCAAAQgAAEEHWkAAhCAAAQgAAEIQAACEIBASwkg6FoacZgNAQhAAAIQgAAEIAABCEAAQUcagAAEIAABCEAAAhCAAAQg0FICCLqWRhxmQwACEIAABCAAAQhAAAIQQNCRBiAAAQhAAAIQgAAEIAABCLSUAIKupRGH2RCAAAQgAAEIQAACEIAABBB0pAEIQAACEIAABCAAAQhAAAItJYCga2nEYTYEIAABCEAAAhCAAAQgAAEEHWkAAhCAAAQgAAEIQAACEIBASwkg6FoacZgNAQhAAAIQgAAEIAABCEAAQUcagAAEIAABCEAAAhCAAAQg0FICCLqWRhxmQwACEIAABCAAAQhAAAIQQNCRBiAAAQhAAAIQgAAEIAABCLSUAIKupRGH2RCAAAQgAAEIQAACEIAABBB0pAEIQAACEIAABCAAAQhAAAItJYCga2nEYTYEIAABCEAAAhCAAAQgAAEEHWkAAhCAAAQgAAEIQAACEIBASwkg6FoacZgNAQhAAAIQgAAEIAABCEAAQUcagAAEIAABCEAAAhCAAAQg0FICCLqWRhxmQwACEIAABCAAAQhAAAIQQNCRBiAAAQhAAAIQgAAEIAABCLSUAIKupRGH2RCAAAQgAAEIQAACEIAABBB0pAEIQAACEIAABCAAAQhAAAItJYCga2nEYTYEIAABCEAAAhCAAAQgAAEEHWkAAhCAAAQgAAEIQAACEIBASwkg6FoacZgNAQhAAAIQgAAEIAABCEAAQUcagAAEIAABCEAAAhCAAAQg0FICCLqWRhxmQwACEIAABCAAAQhAAAIQQNCRBiAAAQhAAAIQgAAEIAABCLSUAIKupRGH2RCAAAQgAAEIQAACEIAABBB0pAEIQAACEIAABCAAAQhAAAItJYCga2nEYTYEIAABCEAAAhCAAAQgAAEEHWkAAhCAAAQgAAEIQAACEIBASwkg6FoacZgNAQhAAAIQgAAEIAABCEAAQUcagAAEIAABCEAAAhCAAAQg0FICCLqWRhxmQwACEIAABCAAAQhAAAIQQNCRBiAAAQhAAAIQgAAEIAABCLSUAIKupRGH2e0nsHr96rB03dLwztp3wutrXg8vrn4xPLPqmfCXlX8JD694ONy3/L5w57I7wx+W/SHcsPSGcPWSq8OvF/86XLHkinDt0mvDTctu6v121/K7wv0r7g+PrHwkPLHqifDc6ufCy2teDm+ufTMsXLcwLFu/LKwJa9oPjBBAAAIQgAAEIAABCEwjgKCbhoQbEKhPYF1YF95a81b466q/hv9d8b/hj8v/GG5Zdkv43dLfhd8u+W24bPFl4cKpC8N5i84L/73wv8Pp75we5r4zd6T/zlh4Rjh70dlh3qJ54aKpi3riUCJRYvHWZbeGO5ff2RORz65+ticy61PgDQhAAAIQgAAEIACBURNA0I2aOP61msD6sD78fe3fw1Orngr3rrg3XLfkunDB1AUjFWajEoJnvHNGuHjq4p7gUw+gev4Wrl3Y6vjDeAhAAAIQgAAEINA1Agi6rsUo4RkYgQVrF4SnVz3d63H73ZLf9XrYRiWmJtmfMxeeGeZPzQ83L7s5PLjiwfDC6hfC1LqpgXHHIQhAAAIQgAAEIACBfAIIunxWPNlRAprDpmGG9624r9cbpeGI6p2aZFE1ibb9fOHPw6VTl/aGmj604qHwt9V/C4vXLe5oqiFYEIAABCAAAQhAYDIIIOgmIx6wYoQEXlnzStBCIpdMXRLU2zSJ4qhLNmnOoBZz0bDNt9a+NcKYxisIQAACEIAABCDQfQIIuu7H8awP4Yp1K8KTq54MNy69MZy98GwE3IgXY4nFqRZl0cqdmpOnOYkcEIAABCAAAQhAAALNCSDomrPjzQkmoJ6gB1Y80FviPxYU/D3a1TVTvLXap1bafHTlo8zDm+D8hGkQgAAEIAABCEwuAQTd5MYNltUgoJ6e51c/H25bdlv4n6n/oRduzL1wKRGX+k3zFzUc9tU1r9aIfR6FAAQgAAEIQAACs5cAgm72xn3rQ64FNx5b+Vhvk20WMZmcXreUYKvz2zmLzukNk9XefivXr2x9eiUAEIAABCAAAQhAYBgEEHTDoIqbQyOgnpt7lt8T5i+eTy9cS3vh6og6/+wVi6/obZPw9tq3h5a+cBgCEIAABCAAAQi0jQCCrm0xNgvtXbhuYbh7+d3hFwt/gYibZSLOCzp/feHUhUFbI6xYv2IW5giCDAEIQAACEIAABN4lgKB7lwVXE0ZAe8Nds/QaRBwirjQNaFEVbXCurSg4IAABCEAAAhCAwGwkgKCbjbE+wWFesm5Jb4NvFjbp3pw438M2jGvtK/jIykfC6vWrJziFYxoEIAABCEAAAhAYLAEE3WB54lpDAi+sfiFcv/T60p6YYQgA3OymaNRm8bcuuzW8sfaNhqmR1yAAAQhAAAIQgEB7CCDo2hNXnbRUwyp/vfjXCDmGVQ4lDVy35Lrw2trXOpl3CBQEIAABCEAAAhAQAQQd6WAsBJ5Z9Uy4fPHlQ2nE0/PWzZ63mcTrtUuuDa+sZp7dWDI7nkIAAhCAAAQgMFQCCLqh4sXxmMBTq54Kly2+DCFHj9xY0sC1S68NL69+OU6W/A0BCEAAAhCAAARaSwBB19qoa5fhEnLzp9g7bia9TLw7uJ7Hq5dcHV5a81K7MhHWQgACEIAABCAAgQICCLoCKNwaHIHX1rwWrlx85Vh6YxBAgxNAXWV507KbwtS6qcEleFyCAAQgAAEIQAACIyaAoBsx8Nni3ar1q8Lty25HyDG0cuLTwBnvnBEeWPHAbMmahBMCEIAABCAAgY4RQNB1LEInITiPr3w8nLPwnIlvyHe114lwNeuZvHjq4vD86ucnIQthAwQgAAEIQAACEMgmgKDLRsWDVQReXfNquGLxFQg5euVanQZuXHojwzCrMju/QwACEIAABCAwMQQQdBMTFe025LZlt7W6EU+vVrNera5yO/2d08NDKx9qd6bEeghAAAIQgAAEZgUBBN2siObhBfKNNW+weiU9cp0V89qYfNn6ZcPLQLgMAQhAAAIQgAAEZkgAQTdDgLP59UdWPtLZhnxXe54IV/2eyF8s+kV4dtWzszmrE3YIQAACEIAABCaYAIJugiNnUk3TCpY3LL0BMUfP3KxKA3ctv2tSsyR2QQACEIAABCAwiwkg6GZx5DcJ+gurXwjzFs2bVQ15erXq92p1ldmvF/86/H3t35tkHd6BAAQgAAEIQAACQyGAoBsK1m46ev+K+xFy9MrN+jTws4U/C0+tfqqbmZxQQQACEIAABCDQOgIIutZF2XgMvmP5HbO+Id/VXifC1awH8pEVj4wnM+IrBCAAAQhAAAIQcAQQdA4Gl8UEblp6E2KOnjnSQEEauHf5vcWZhrsQgAAEIAABCEBgRAQQdCMC3UZvVq9fHa5achUN+YKGPL1azXq1ushNezByQAACEIAABCAAgXERQNCNi/yE+zu1birMXzwfMYeYIw1kpIHfLfndhOdozIMABCAAAQhAoKsEEHRdjdkZhOuttW+F/1n0PzTkMxryXexxIkzNeh+vXHxlUK82BwQgAAEIQAACEBglAQTdKGm3wK+l65cOXMz98JEfhk9t9anwb//2b2HL3bYMp7xwSu+frnVPv+mZIiHx0wU/DUf98ajwle99JWyy+Sa95z/68Y+GL3ztC+Fb878VTn3t1ML3vFtFbvz7x/49bL7L5uGb53yzZ4t/vuz6tNdPC9/5zXfCF/f5YpANsl027fKDXcKxfzo2zF2QJwROePKE8LVTvxY23XrTnhuy5fN7fD7sd/5+Yc7LcyrDY/aJ477z9u29Kzdkj9ysY4/8k7/y37sh+2Sn+ZU8L5gbjn/8+LD7ibtPC1NuHMn9ovCI7/YHb99LA4rHlB0nPn1i+NxXPtfjIBZV/2Rbyr0mv2mIMgcEIAABCEAAAhAYJQEE3ShpT7hfa9evDZctvmzgjdymgu6Uv50Sdjpyp2TDfItdtwjHPXZcqc1zXpnTE4Opxr1Ew0G/PSgpyE544oSw9V5bl9oiMbTn6XuG0948rdQW/bbPufv0xWCRTbLlkOsPSdoi4ahn9GyRG7oneyRWf/p2uQj6/r3fD5ttv1mpGxKtEj0pISX3979w/2SY5McxDx5TykXhOfz3hyfDozBt/93tw8nPn1zqzg/u/0H4z83+szQ8MathCDqJwJuX3jzhOR3zIAABCEAAAhDoEgEEXZdic4ZhuXbJtaWN5Sa9FfZOE0F30rMn9XrCrBG+2Y6bhX1+uU+v4X/AxQf0evrst6323CroefPPzhJQuxyzS7+BLwH09blfD4fdfFg4+NqDw46H7djvlfr4ph8PR9x6xDQ35Jbclh/mn3roJADlzlfnfDXoXftt77P2LhRjEj7y256T4Np2/2377ug3E2j6rSc2inr8FswNB152YF9ASXRJ9Co8h95waNjthN36v6XcOfbhY8NnvvSZnj16TizMjZ2P3nkjNw666qBCLhJislPvK1ye73eu+E6vF9XCK1F3/J+PL3Tn6LuP3oih8ZXIU5x/eptP97kprKe+Wtwr+92rv9sPj8Igpql/6vm1tDLo813L75phbuR1CEAAAhCAAAQgkEcAQZfHqfNP3brs1qE1busKOomfb5zxjX4jftfjdw3qafONbg1/3OOUPfrP7HXmXtOE1GE3HdYXGxJkJz514kZu9Hq6rjukLybUA/fjF3+80TPeFgmXol4v9d59/quf79myyRabBPUUeVt1LbH4H5v8R+8ZCcBDrpveCyf7TDiWuXPco8f1hZiGqh55+5HTwn30PUf3n5Foi4XUqa+fGr5y1Ff6tmgYqVh4m70bm++8+XR278wN3painlKx+69f/Vc/Dnb70W7Tegwlzr78nS/3bBHfAy45YFqPoHpqdzhkh94zEog9ewvmN+718716z3z2y58NihMfnnFcP7jiwc6XGwQQAhCAAAQgAIHxE0DQjT8Oxm7B3cvvHmrj189t0nwozXvTP12rga55T3rGGt0anidBo9/UkC/rkTnpmZPCFv9vi95zmgN28gsbD8f7+k829IhJSH3vru/13Td/dJbo2P2k3XtuSFDEvTYSQ9aTtd2B25XOcfO9THJP7po/6inUHECFR36U9r69M7c3F8/mG8bueFsVJvUQmh/xWUJK/ulfPLRQLExcFoksc0s9c7JXbsg9u987L5gbJKItTOod3Oj3/xNcvpdUcRoPvdRwWeuBEyM9X+SOTxPqpTvtjY2f0982PLcXT69u/AGgyM1R3Hti1RNjz98YAAEIQAACEIBAtwkg6Lodv5Wh+/OqPxc2oAfZ2PXiTb1qvd6gBXP7PWwm8szPfc/btycUUkKs9+yCub3FRTTUb5t9t9moJ0q9UDsctqFXJ7XoityR4CkTPzaMT7+X9QzJDS/aYoGq3iL1GsmNol5AC7fOEm27nrBr79m4p8kL45T4kTvqFZVQ0lDVvc/ee6M4tp6sKr7qrbR5g7FI+vFLPw5f/OYXs8LkBaTi1odXPYzGXsNX/W/+Wgum2CI6trBO2e/i5wW1f24c16+tea0yH/IABCAAAQhAAAIQaEoAQdeUXAfeW7xucThr4VmljeiBNX6deDvgogP6/ulajfm+yHtnbpjz6pwg8aD7sYioZY/zUwtlFA2DNPfMDvnpe5q8uKoShXLLhGjc06deP+vp8mE1/+OzF5h+Xp9sM/Hj7YzfT/3t+Rb1avp3ffglDv3iM34BEq2IGQ/Z9O54IRr3rmku3yc//8leuFJCTIuhWG9sUbrw7vg05u0Y1/Wliy/tQGlBECAAAQhAAAIQmFQCCLpJjZkR2HXdkuv64mrYjV0TKV6gWO+Mb4D73iwNmZyJXVrkw4SUFsco6rXxC57E8828+CnqFYptU9hMcPlhjhZO/ebvx+/b32XPW89aLK7svZyzF1fqwVRPZuo9L3Zllz3rxWVVmHwPbcxR2yZss982PW7iL2FmfvTP0eIrRfMlzR4T09pGQds32EIzOtfZzqHvd8FcvSa/3bP8nhHkaLyAAAQgAAEIQGA2EkDQzcZYDyE8tvKx6Q3nATVemzR47R0txmHzu0woaLidFiP53E4b9hhTo129S9++4ttBi6PYu/FZc+9sXpXe2fW4XTcs7rFgw9DGH9z3g/6QQv3e888tDuKH+eWIH99r5YcPeoEmURbbGf8tO0wYmjs/eesnYecf7Ny7b6LI9tfTkFVbadOEiwRNUa+ZX6DG3I7993+bUIrFqLfRCz3/rl37nr6ink4JYbNfYlV+Krx6X8M+9/3lvv1VN8tWNLXeUfX27Xj4u6uXGkc7K561X17ZvEyzeRjnV9a8MktLG4INAQhAAAIQgMAwCSDohkl3Qt2eWjcVzlx4ZqWwGEajtspNL37U0K/an0wbjPuhgLH7EnwSUbYRuDXs/VkiQitixvutefGTI+j8814s5S780bP9/+YFmn3mjp8TKAGnBWFsoRV71p8VXi35H/dKer7mdszM/+2fN4Gt3/Wu+Vcl6PzzRYJOv0tcKy7Nzfhsgvzk5zZe+EbverFr7/ltLrTFhJjJDftdQn/Uom7+4vkTWiJgFgQgAAEIQAACbSaAoGtz7DW0/Zol10ykmFPj/MDLD+w3utWTop4bNcRtzzbbm0wNdmucaxGSsmXqtVjJd678Tth8l837z9t7OsttLeF/wl+mL3NfJtBkZ9E//7x606yXScLBluZXeLQiZtH7uqdVNf1m3ya61FNlWyNon7YvHfClXnjUI6UNzW1vPQkVE68Km3o2fU9dmUArs8c/73sXTdCVCbTYPXteva/qhY1/F38xs546H0e6luhWPBatgukXaNGzmqdY1HPrt2IQG+3nF9sx7L+1oiwHBCAAAQhAAAIQGCQBBN0gabbArb+u+uvIG7F1Gsl+KJ8a52rgF+3ZFu9Dpw3E48a+FtKwBVZMFOx11l6F4kciSH77Xjov0ExYpcLin4979PwWANqzrWiuWLzfmmw2f/3wT93XP23poHdim7xwiQWkF2i+xy12w/72z5st+s0EWl1BJ7vlprkvsanVQ03ISWipN029akXiXWI23k9QvZV65zPbfaYnzlPzAiV8bUhv1YqjfRtLBHzT399e+3YLSgpMhAAEIAABCECgLQQQdG2JqQHZOX9q/ruN6QE3VJs2cP17saDTRtO+h8k/qwU1TLDFe5xJ3Enkmfgp67XRXDPr+ZKY0Pwt88MLNC9m7Pf47J/3PXR6TiLDNvOWTRKQ6k3Twi0SGVq0xRbw0FBK64E0f2NBJ5slZGIb7G+FQ+GRX34/Oy/Q6gq6YfTQ+f37tChKUe+d4nK/8/frh6e3yuXLzfaZ80NXy3oLjeGwzrcsvWVAuRlnIAABCEAAAhCAQAgIulmUCp5b/VypABhW47Wuu37fNy1TnxItclu9OybaNFzT/PN7n6U2J9fzx/7p2KCeJrmjFRclFHXfC7S4x8388Wf/vAkx/7uGXu52wm59e81uO9u8N/XeaYih7ps78bDCaRt9R+Lc7yEn8ae/ZYsXdOa2tzG+9s97Aah3ze6NetwiO8w9e9736Emo2TxAiavURumaC6jtEeSnhKqEsLld92wLqMgtn2bqujOT5xetWzSLSh6CCgEIQAACEIDAMAkg6IZJd8LcvnLJlY0bwTNpvNZ51wuIHBGlHh0bQucFim+0+163Ilv8Kox+zzrfK5Zji1/lsmzLhZyVKf2eaiaifM+ShEiViPILhXgRVSU6Yz5iZ8LNix/fk1pli+croWqL2PgtFIr2lott8XxTe9bF78V/e9uNb/zMsP++Y/kdE1Y6YA4EIAABCEAAAm0lgKBra8zVtPul1S9NvJhTI9o32nNEVJlAsR4hLRpSNF8tbrD7Rr4JFL8Pne/lit+1v8v2obPfc89eRMlNvedFUY6g0zvGwAs6L6Jdv0RkAAAgAElEQVQ05PO0N8q3fZAbOfvQeaFXFMayfeh83OVsuF5XYBfZons+rscl6E5/5/SwfP3ymrmYxyEAAQhAAAIQgMB0Agi66Uw6eWeSV7b0DW8vOHJ6bY7641H9uVXqlTO3TMzMRNB5EeV7lsyP+Gy9ghoSKLvi37P+dtsWxH6a+xJ0Vb2OEmoSbHpWq4CKq/yvI1JT4ffCu6w30sLr49SLyEEKOvVgSvDZyqLmd9FZ9lqvo4n3oueGfY/NxjtZ1BIoCEAAAhCAwMgJIOhGjnz0HmpVvWE3Tgflvh8qGC90UuSH5pJZ49yLHC9+NM+u6F2754VLvFCGn9Pn3bd37eyHRHoBpd8lrrQFg1ZhrBKpmjOouYMKk7Y68Hul+eGlfqETs8GfvTuxn1rcRO774aX+Xbs++YWTexu469nYDT+nL/7N3rezRJMt0OJFtxd6OStOehHpF52x8MjOqrj2cws/++XPlm53YbYP83zWwrNGXxjgIwQgAAEIQAACnSOAoOtclE4P0IMrHkwKmmE2Wpu47Rc60UIYElxF7pz07EnhC1/fsBl1vICKFz89wZFYFdEvihILC+0Lp9UXJRZSi6v41RqniS3X6yaRKmFSFB6t5rnfvP36AjUWJ16MaBil7C50JxpWGC+g4heMSfH1Wy3EbsjWvc7cIAxTC5r41UZjge7FuwRfSjArDdiiKLFw06bwJhiTcb1gw3BLe3ZaPJUs6FLGeBD3X1rz0vQMyx0IQAACEIAABCBQgwCCrgastj76m8W/KW34D6JROmg3JFy035ga7mp8a8l6CQPvz5xX5vRXSNRze5+190bbG3ghod81R0tzubwbutaeZlvtuVXfr3izaQkJP0RP17Et2tTctj4oE2xeRO14+I5B9ntbtFiKVm60/dgUfluZ0j/nRZb81LYL/ncJLe3fZlsgaJNyiVL/jO9NFF9tDeH339OzEsQmZDffefNpe7/pGT9kUs8e8+AxG/kjdhKCJqB2+9Fu08S5F8JyQ5zibSpkm2w0dyS6tceghcmnF8V1URzJTe1naHzl13GPHtd3w9wa9fmu5Xe1tVjBbghAAAIQgAAEJoQAgm5CImJYZqwNa8feaG3SSNZCJiYo1EjfcrctwwEXH9DfbNqW9ddv2+6/baH4+dGTP+oPGdRzmk+35+l79jcW3/X4XfsNfP2+89E7bzTE0exWT6CJPm9LvH+cfouFpbkRC0zZv88v9+mFRwtzmICVGwp32UIuPYE59905YNrqQFshqHdLgnDHw3bsCx/9piGjZoM/x3zlvzbzljtyT+/KFokoiUj/bv866vHytsgtH6YiYdlzR72Sbo85+af4tI3FNUTzC1/b0AsreyRUbaGYvh3/tx2DiVg9p338jK/ckpsmCCXqitzw7o3q+pLFlwwr6+MuBCAAAQhAAAKzhACCruMR/fzq54sb42MYXla3kSzR4RvzaqjH/7b/7vYb9dbEfqj3TD068Xv+bzX0NZzvtNc37gX0bmmp/ZQtckNiMe69827EvYreBruWH2ViztySH/ucu09fdNm7/ixxIyET93aZGzpr4RYvjP37upZAk9iMe++8GxKYEk4mAGM39LfEXNx7F7ux/4X7J90wd75/7/dL07N+k19FNtg9cTnk+kOSXLxto7hevG5xx0shggcBCEAAAhCAwDAJIOiGSXcC3L592e2lDeBRNFZn6ofEixrg2+y7Tb83TT0s2x+8fU+QpMSG+S3RoYU5tIm178XRIiUScif85YSsBr4En+a1qefJBIzc2+UHu2yYz7ZgbiVr2SshJftt+J/OCp/CmRKEFh47n/DkCT37FQ4TLJ/b6XPhm+d8s7fioz2XOmsTdfWQfX6Pz/d7sDbdetMNXJ48oTI8PbcXzO0N/dTCL3pXtkjgyk0JwqKhrkU2qSd033n7bmRLn811hyQFt7mnONLQSp9eFFcSygqnbRpvz0/C+c8r/zwBJQUmQAACEIAABCDQVgIIurbGXKbdF0xdkNcob0GP3SQ0vrGhWrTCqB6j65dcn5mbeQwCEIAABCAAAQhMJ4Cgm86kM3fWrm/n/DkEQT1BAK9287po6qLOlDkEBAIQgAAEIACB0RNA0I2e+ch81NwcGvvtbuwTf92Pv3MWnjOyMgGPIAABCEAAAhDoHgEEXffitB+i19e8jqBjKClpoAVpYN36df18ywUEIAABCEAAAhCoQwBBV4dWy55t8wqX9Ex1v2eKOH43jpesW9Ky0gVzIQABCEAAAhCYFAIIukmJiSHY8fjKx+mdaUHvDMLmXWEzW1m8uebNIZQAOAkBCEAAAhCAwGwggKDrcCzft+I+BB2CjjTQgjTwwpoXOlwSETQIQAACEIAABIZJAEE3TLpjdvu2ZbfRmG9BY3629koR7nd7Jv+y6i9jLi3wHgIQgAAEIACBthJA0LU15jLs/t8V/4ugQ9CRBlqQBp5b9VxGjuYRCEAAAhCAAAQgMJ0Agm46k87ceWzlYzTmZ9iY/9b8b4V/+7d/y/730Y9/NGy+8+Zh9xN3D8c8eEz46YKftiYOZOthNx0Wvnv1d6fZ/NU5X+0zEBP1rnk2+p0et3d73Oqy0Iq0HBCAAAQgAAEIQKAJAQRdE2oteefZ1c/SyB6xoIvF31e+95Uw55U5Ex8PJz59YtjuwO16os0EmxclCLrmYs1zLLvWnpEcEIAABCAAAQhAoAkBBF0Tai1557U1r028kChr4E7Kfd8Ltccpe4TDf3946b/Dbj4s7H323uELX/tCvzdLAu9rp34t/PTtye6pO/L2I/s2I+iGK96K0vba9WtbUqpgJgQgAAEIQAACk0YAQTdpMTJAe6bWTSHoBthDVyR0ihrnGrr47Su+HT6+6cd7Iuk/NvmP8L27vjfRcYGgG72Is7Rz9sKzB5jrcQoCEIAABCAAgdlGAEHX4Rhfs37NRIsIa9BO8tn30OUKOoVHPXJf/8nX+71ee/18r4mOiypBt+95+/bDcsStR/TCorMNMdXvkxyPk2zbhVMXdrgUImgQgAAEIAABCAybAIJu2ITH7P68RfNoaM+gl66poJOA8IJnh8N2CKe+furExkWVoLOwfPLznwzHPnxsLxw662+JOhN5kyycJtW2a5ZcM+ZSAu8hAAEIQAACEGgzAQRdm2Mvw/bfL/v9xIqISW1ge7tmIui8SEoJutPePC0ceuOh4cvf+XLYZPNNegJJq2VqLt6+8/YNp7xwSlYcnvDkCWHP0/cMm++yefj3j/17z51Nt940aGGWo/54VOGKmz581tvmzwqDeJh42+L/bRFOfv7k3j2d9bcXeZ4d13nDOB9Z+UhGTuYRCEAAAhCAAAQgUEwAQVfMpTN3n171dJYYoPFd3Pj2gkfXdTj5YYpaGGXugul+SCjFi6h4QaVribzvXPGdQkEmeyQI9zl3nyARGL/r/97+u9uHk545aaMw+PD5Z+3aBJ1E5Za7bRm2P3j7cOprG3oa1eMooepFXh0+PLshPbyz9p3OlDcEBAIQgAAEIACB0RNA0I2e+Uh9XLl+5UYNeBrR00VViokXPHUEnYTaZ770mZ7A0qIoRUMS/TMSUJvtuFnY55f79FbRPOi3B4Vt99+239OmHree/5Eo7M3Vm/vuXD2Jup2O3CkcfO3BQatuqsfOhkXKj6323Cqc9Oy7ou6EJ07o+Sd/TcT51TxPfmFDb1yKEb/VS1Oe1wVTF4y0PMAzCEAAAhCAAAS6RwBB1704nRaiyxdfjqhrOI+ujqCTuDrxqRPDfufv1x86KZG0yzG79HrRfEP+xy/+OHxxny/2RJTEmrY7UE+bf0Y9euoh+9RWn+o9p1Uzj7776I2eOeiqg/qib4tdt+jPb/PuaB+8XY/ftS/Yiuzxw0PrCFfvD9f1hd3ty2+fll+5AQEIQAACEIAABOoQQNDVodXSZ+9bcd9GIoCGd37D2ws668Gqc5aQKtpY/LtXf7cvsHb70W7JfeoOveHQvmjTfDgTfj9+6cfhi9/cIAo32WKT8IP7f1Aaz3NentPfOLxoGwUEXX6aGGT+eX718y0tVTAbAhCAAAQgAIFJIYCgm5SYGKIdr695vbShP8jGaRfdaiLo1JMm4fX9e79fOO/tJ2/9JOz8g517gu4/N/vPpBAT0zmvvivGPvvlzwYNk9T9o+85OkicSWDuesKuSVGo5yUMTYzG2ygg6EYv6E5/5/SwNrCh+BCLPpyGAAQgAAEIzAoCCLpZEc0hXLHkCkRdg2GXXtD5uWWH//7w/lw3GzopsbTVN7YKx//5+CRrDbf8/Fc/3xNXOuvvKjFse9ppeKZWrNTzB15+YF+g6brKjeMeOy58eptP997RPLvT3nh3iCeCbvSC7vZlDLecJcUvwYQABCAAAQgMlQCCbqh4J8fxZ1Y9U9ngrxIEs/F3L+h0XcTgpwt+Gr59xbeDeuYk6rQqZdEiKPauLfevZ1PbGdjzOns7NFxT9w646IC+oJMg888XXdtKlfJXQzU1ZNOeQ9CNXtAtXLdwcgoILIEABCAAAQhAoLUEEHStjbr6hs+fmt9vwFtDnnO6Ie+FVJmg6zFcsEF02f5vEndlou6Hj/ywv9BJE0Fndnx1zlcbCzptQeD3t0PQpdPBoPPJzUtvrp+BeQMCEIAABCAAAQgUEEDQFUDp6q0nVj2BoKs57DJb0L0zN2hftq8c9ZW+yIq3CDBRMNMeOhOKM+mh8/vJyS4E3WgF3Vtr3+pqMUO4IAABCEAAAhAYMQEE3YiBj9s77XtlwoJzdSO+jqATT82f22z7zfqiThuKazsDz5o5dNXcPa+uXf9u6e/GXQzgPwQgAAEIQAACHSKAoOtQZOYE5dGVj24kLrrWWB50eOoKOvl/4GUH9rcZ0NDLeH5b3VUu/fYEM1nl0m+VwCqX4xOVr6x5JSer8gwEIAABCEAAAhDIIoCgy8LUrYfYaDy/Md9E0J366qlhh0N26PfSaRXMeCVLL67Yhy4/PgYt2Eft3u+X/b5bhQmhgQAEIAABCEBg7AQQdGOPgtEb8ObaN+mly5xL10TQSSRok29t9q0VJfVvv3n7hbkL3hUuEni23YEWUtn77L37G4b3RcaCDXPbPrXVp3puFPX2HXTVQf3ewC123SIc+/Cx0+JWG5trg3OzRfP8NN+v7080h05z8/xvXL8bbzNhMW/RvLB6/erRZ3h8hAAEIAABCECg0wQQdJ2O3vLAPbDiARrtGaKuqaDTvLlvnPGNvoiSKNPqll4QSHx95kuf6T+z2Y6bhX1+uU9/f7tt99+2L9Yk+r55zjenzceTP1+f+/W+Gx/9+EeD9pg7+NqDw2E3Hxb2PH3P8MnPf7L/u0Sf9qPzduhaAlSbnEv0aa867WunvfZOfuHkac/G7/J3nuB7dvWz5RmSXyAAAQhAAAIQgEBDAgi6huC68NoVi9lsvEqMNBV0cvekZ07qbyAuobTLMbtM64X7wX0/CBJZ1ntWdNa+dt+69FvTxJzZftrrp4VvnPmNvvgrckP3tjtwu/CjJ39UKNDmvDyn93v87qE3HFr4vPnNOU/M/WHZH7pQZBAGCEAAAhCAAAQmkACCbgIjZVQmael0GuTpBvlMBJ3YShDZ3nQ6Fwmk0948LRx646Fhu29v19+cXD1tX/jaF8K+8/bdaL+4VHyd8OQJvR65z+30ub5A3HTrTcNXvveVcNQfjwraAD31/il/OyXsftLuvY3RTdjte96+yXdS7vHbhrR1/qLzw9r1a0eVrfEHAhCAAAQgAIFZRgBBN8siPA7ugysepMGeMfQScZIWvvAp5/P86ufjbMffEIAABCAAAQhAYGAEEHQDQ9leh7TyHg3y8gY5bGDTNA3ogwkHBCAAAQhAAAIQGCYBBN0w6bbI7WuWXIOoo6eONDDANPDHZX9sUQmAqRCAAAQgAAEItJUAgq6tMTdguzXH57LFl9GgH2CDvmmvDu+1v0fwpqU3DTiH4hwEIAABCEAAAhAoJoCgK+YyK+8uWb8knD91PqIOUUcamEEauGrJVbOy/CDQEIAABCAAAQiMhwCCbjzcJ9ZXbTp+1sKzaNDPoEFPD1v7e9iaxuH8xfPDqvWrJjZ/YxgEIAABCEAAAt0jgKDrXpzOOEQvrH4hnLnwTEQdoo40UCMNXDB1QVi0btGM8x8OQAACEIAABCAAgToEEHR1aM2iZ19b81r45aJf0qCv0aBv2qvDe+3v0fv14l+HZeuXzaISgqBCAAIQgAAEIDApBBB0kxITE2jHwnULw8VTFyPqEHWkgUQauHbptWF9WD+BORiTIAABCEAAAhCYDQQQdLMhlmcQxpXrV4bfLP4NDfpEg54etvb3sDWNQ+3hyAEBCEAAAhCAAATGSQBBN076LfL7+iXXI+oQdaQBlwbuXn53i3IwpkIAAhCAAAQg0FUCCLquxuwQwnX7sttp0LsGfdNeHd5rf4/eQyseGkIOw0kIQAACEIAABCBQnwCCrj6zWf3G4ysfDz9b+DOEHcJuVqYB7dP44poXZ3UZQOAhAAEIQAACEJgsAgi6yYqPVljz97V/D1rVj56m9vc0EYf5cXjj0hvZY64VJRRGQgACEIAABGYXAQTd7IrvgYb2zuV3IuroqZsVaeCRlY8MNO/gGAQgAAEIQAACEBgUAQTdoEjOUneeXf1s+MWiX8yKRj29Wfm9WV1hNX9qfnhzzZuzNHcTbAhAAAIQgAAE2kAAQdeGWJpwG5euWxquXXItoo7euk6lgTuW3zHhOQ/zIAABCEAAAhCAQAgIOlLBwAg8teqpoEUjutI7QzhmX4+c4lzzQ19Z88rA8gUOQQACEIAABCAAgWESQNANk+4sdfue5fcg6uita10aOHvh2eHRlY/O0lxLsCEAAQhAAAIQaCsBBF1bY27C7dZKmAzDnJ09XG3s2bxt2W1h5fqVE56rMA8CEIAABCAAAQhMJ4Cgm86EOwMkoGGYv5r6Vet6a9ooSrC5mYA+d+G54S+r/jLAVI9TEIAABCAAAQhAYHQEEHSjYz2rfXpgxQNBDWdERzPRAbfhc7th6Q1hwdoFszqfEngIQAACEIAABNpHAEHXvjhrrcXrw/rw0IqH2OaA+XUTK+zPXXQu8+haW8JgOAQgAAEIQGB2EkDQzc54H3uo/7TyT+G8RedNbMOeHrHh94hNMmPN/3xzLfvPjb2gwAAIQAACEIAABCoJIOgqEfHAMAk8vPLhMG/RPIQdvXZDSQOXLr403LHsjjB/8fza7v/8nZ8HDRXmgAAEIAABCEAAApNMAEE3ybEzi2x7dMWjQY3vSe61wbb29NpdteSqoAV57FgT1oS7l9/dKH39dslvw6trXjWnOEMAAhCAAAQgAIGJIoCgm6jowBg1nG9Zdks4/Z3TGzW+EV3tEV2DjqtzFp4T7lx+Z1iwrnxhk5fXvByuXHxl7bSl9Hjv8nuD5oFyQAACEIAABCAAgUkigKCbpNjAlj6BFetXhD+t+FO4ePHFtRvfgxYKuDfZIvGKxVeEJ1Y90U87ORcaSvnzhT+vnbYuX3x5+Nvqv+V4wTMQgAAEIAABCEBgJAQQdCPBjCczIfDimhfDjUtvrN34RohNthCbSfyctfCsoM3A31zTfOESLXqixU+a2KGewFXrV80kWfMuBCAAAQhAAAIQGAgBBN1AMOLIKAio1+7JVU/2xN3ZC89u1BBv0njnnckQhlo859Zlt4bnVj0X1oV1A0tyj658NPxy0S9rp6eLpy4Oz656dmB24BAEIAABCEAAAhBoQgBB14Qa70wEAc2Humv5XeGiqYtqN8YRaZMh0qriQUMc719+/4x64nIS66J1i8LNy25ulI5uW35bWLpuaY43PAMBCEAAAhCAAAQGTgBBN3CkODgOAgvXLQyPrHwkXL3kahZUafEWCBpKecPSG8ITK58Iy9YtG3lS+uuqv4YLFl1QW9j9aupXvd7jkRuMhxCAAAQgAAEIzHoCCLpZnwS6B2DN+jXh2dXP9obnNRlKV9VrxO+D7d27cOrCcOeyO8NLq1+aiMS4fN3ycMfyO2qLOqWLm5feHBavWzwR4cAICEAAAhCAAARmBwEE3eyI51kdSi1+cd+K+4KG7yHGBivGmvLUPnEPr3g4vLP2nYlNm8+vfr7R3ojnT52/0R54ExtADIMABCAAAQhAoBMEEHSdiEYCkUtg2fplvSXur19yfWBhldGJu/MWnRd+v+z34ZlVz4TV61fnRtfYn1sb1oZ7lt/T6EPA7ctvZyXMsccgBkAAAhCAAAS6TwBB1/04JoQJAhoep33FHlrxULhl6S29HhnN42ra8zTb3zt30blB+8JpSwGtHvny6pfD8vXLEzHQjp+04f1vl/y2drq4ZOqS8Lc17FvXjljGSghAAAIQgEA7CSDo2hlvWD1kAlPrpsILq18I2oD6pqU3hfmL5zfaiLqrAk+9mxrCqm0EtBiN5r+p97Prh4T/fy/879rC7t4V93YdDeGDAAQgAAEIQGBMBBB0YwKPt+0ksHDtwvDc6ufC/Svu7+2Hp73IfvbOz2o38Nsi9NRbedniy3q9l39a+adeb+aSdUvaGXkDsvrttW+H3y35Xe04v3LxleG1ta8NyAqcgQAEIAABCEAAAhsIIOhICRD4/+3dh5sUVbrH8T/ouvfedb2667rGNVwV05oVMec1rLqiIlEQJAgMSBjCkHPODCBxGNKQVcKABEUmdfd093SY8N7nLW/NU11THWrong715Xl4uumucM7ndPdTP86pc7IgoMsm6MyaGvS0R29NcI3oBfyCwAKp8FfIVN9UmeCb4DoE5Cr4aVDTGUBnB2Ybw0yXB5fL2tBaY5bGQ9FDRu8kszWm/mCciJ0QXezcTRtp+D8YOZj6wLyLAAIIIIAAAgi4ECDQucBiUwSuVaBd2iXSEREd0qk9PXpvlg7tPBU7Jcejx417+XQSju3h7Ua40pClYWth80IjfGkI0wlGdKp/7TnT+7rWhdYZE47sbNkp1S3VUhOpkRPRE3I6dtroUfu19VdpaGswptOPdcSutQrsbxHQdtR189yEOt1WA39je6PlSDxFAAEEEEAAAQS6J0Cg654beyGAAAKdAnofodt767TXVkM8fxBAAAEEEEAAgWsRINBdix77IoAAAv8voOsddmcmTF2M3Ov3JfIhQgABBBBAAIHuCxDoum/HnggggEAXgepIteshmLMCs1iMvIskLyCAAAIIIIBAJgIEukyU2AYBBBBwIXAhfsG479HtvXV67yT3ObqAZlMEEEAAAQQQEAIdHwIEEEAgBwLxjrgxuY3bUKdrHupi9/xBAAEEEEAAAQQyESDQZaLENggggEA3BXQGU126wm2w29vCYuTdJGc3BBBAAAEEPCVAoPNUc1NZBBDIh4Cu6bcxtNF1qNMlK660XslHkTknAggggAACCBSJAIGuSBqKYiKAQPELHI0elcm+ya6C3UTfRGN9wuKvPTVAAAEEEEAAgVwIEOhyocoxEUAAgSQCdW11siq4ylWo0+Gaush8YxuLkSdh5WUEEEAAAQQ8K0Cg82zTU3EEEMinwL7IPtehrtxfLidiJ/JZbM6NAAIIIIAAAgUmQKArsAahOAgg4B2Bi60XZVHzItfBrjJcKaH2kHegqCkCCCCAAAIIJBUg0CWl4Q0EEEAg9wKtHa2ys2Wn61A3OzBbzsTP5L6AnAEBBBBAAAEEClqAQFfQzUPhEEDAKwKnY6dlVmCW62C3o2WH6Jp3/EEAAQQQQAABbwoQ6LzZ7tQaAQQKUCDYHpTNoc2uQ92CwAK50HqhAGtEkRBAAAEEEEAg1wIEulwLc3wEEEDApcDx6HGZ4pviOthVR6pdnonNEUAAAQQQQKDYBQh0xd6ClB8BBEpSoL6tXlYHV7sOdWuCa8Tf7i9JEyqFAAIIIIAAAl0FCHRdTXgFAQQQKBiBA5EDMq5pnKtgV+GvkNp4bcHUgYIggAACCCCAQO4ECHS5s+XICCCAQFYELrdelsXNi12FOl2MXNe64w8CCCCAAAIIlLYAga6025faIYBAiQi0SZvsatnlOtStD60XnWyFPwgggAACCCBQmgIEutJsV2qFAAIlKnA2flZ0DTrtgcv0r25/Pn6+REWoFgIIIIAAAt4WINB5u/2pPQIIFKFAuD0sleHKjAOdGfwORg8WYW0pMgIIIIAAAgikEiDQpdLhPQQQQKCABY5Gj8qEpgmugt2G0AYJtYcKuFYUDQEEEEAAAQTcCBDo3GixLQIIIFBgAjphii4sbvbCZfI4NzBXLsRZiLzAmpLiIIAAAggg0C0BAl232NgJAQQQKByBSEekW0MwD0UOFU4lKAkCCCCAAAIIdEuAQNctNnZCAAEECk+gJlIj43zu1qzbHNosGgj5gwACCCCAAALFKUCgK852o9QIIICAo4AOpdQhlZkMvTS3md88Xy61XnI8Hi8igAACCCCAQGELEOgKu30oHQIIIOBaINwRFp38xAxsmTyW+crkSPSI63OxAwIIIIAAAgjkV4BAl19/zo4AAgjkTGB/ZL+rUKfBrzJUKdGOaM7KxIERQAABBBBAILsCBLrsenI0BBBAoKAEzsXPSYW/wlWwWxhYKL+0/lJQ9aAwCCCAAAIIIOAsQKBzduFVBBBAoGQEAu0BWRNc4yrUTfBNEF3njj8IIIAAAgggUNgCBLrCbh9KhwACCGRNYG9kr6tQp0Mwt4W3SWtHa9bKwIEQQAABBBBAILsCBLrsenI0BBBAoKAFTsdOywz/DFfBbnHzYrnSdiVlvdraO6SuuU1OXWmVwxfisu9cXHadjsnWH6Ky4XhE1hyJyLKDEVmwr0Vm7QlL+Y6QTNwWkrGVIRm5IShD1zbLgJXN8tnSgHy0yC//nOeXN2f55JWZPuld3iRPTWqSRyc0ygNjG4y/+lxf0/d0G91W99F99Rh6rKFrg8axx24OGucq3xE2zq1l0LJombRsWkYt675zMaPsp39rlb+dAyEAACAASURBVPrmdtE68QcBBBBAAIFCFyDQFXoLUT4EEEAgywKNbY2yKrgqZagb0zBehl2cIl+emiWfHF4oH+5dKyN31cq4yqAMXNks783zG2FKA9bNQ+vkP/pdLcm/fx1WLw+Oa5QXypvk/fl+GbSqWcZvCcncqhZZdzQiVWdj8tOVVrna3C6tbQTALH9UORwCCCCAQAYCBLoMkNgEAQQQKBUBf0uHHL0UN3qnBu04Kc+t/l7+sahK7q84JHd+d1JuHn1W/jjkUkmGs54InX8ZWm/0ID4/tckIvdpTqL2Qs/eEZe3RiBy7FJdAC8GvVL5P1AMBBBAoBAECXSG0AmVAAAEEsigQjHTIictxWX8sKpO+D0nfpQF5dkqT3DKsdHvSeiKsZfMct3xdJ89NbTKGh07+PiQbjkfl5C+tEowS9rL4VeBQCCCAgCcECHSeaGYqiQACpSYQjnXID7+2ysYTUZm6PSxfLAsYQyBvHV5fsL1rf+h/Va4fWCc3DqkXHcp424gG+fuoBrlvTKP0Gtcoj05okicn+eTZqT7pM90vr8z0y5uzA/LuvGb5cGGzfLIkKJ8v+/2vPtfX9D3dRrftM81v7KvH0GPpMfXYeg49l57zxiF1Rhn+8GXhDhG9bXi9McSz3/KATN0Rlo3HI/Ljr62ibc4fBBBAAAEE7AIEOrsI/0YAAQQKSEB7bPacicm0nWH5ckVA+kz3yR0j8hPa/jSoTm4f0SAPjW+S58t98vacgHy6NChD14WlbGtEZlVFZfnhuGw62SbbfmqTnWfaZe+5DjlwoUOOXBY59kth/dUyadn2nms3yqpl1rIvr4lLRVXUqNPQtWGjjm/NCRh11rqrwfWD8tPbecc39fLidJ/0XxGQ6bvCUnUmRq9eAX1fKQoCCCCQDwECXT7UOScCCCCQREBniVx6MCL9VzTLI2WNOe1tu2Fwndz5TYM8XNYkvaf55Z25AflsWVCGrQ/LhG0Rmb03JisPx41wpsGn0AJZvsujJlt/ajOM1ErNhq0LS99lQcOyd7nfsL3jmwbRMJzNIZv2Yz02oVEGrAzIsoMtorN08gcBBBBAwDsCBDrvtDU1RQCBAhNoDLXL9p+iUrYlJK9V+OSmr7J/0f/nr+qNUPHG7IAMWBWSSdsjsuJw3Og5y3cg8tr5q861Gz2Y2gbaFm/MCsjD45vkpiHZ73HVyVler/DJhK0h2XEqJr4wwzUL7OtPcRBAAIGsCRDoskbJgRBAAIHUAid/icuC6rB8vqzZmArf3svS3X/rfWE6FPC1WQH5cmVIJn4fkWU1cdlT206vWoEN80wWYnefbZelh+IycVtEvlyhAT9g3AP4P4OzF/J7jWsw7rVctL/FuP8y9aeVdxFAAAEEikWAQFcsLUU5EUCg6ARqLsTl280heWmG75qH3P1X/zojBL5a4ZcvVoSkbFtElhyKy66zhLZkIalUXtd7EZccjBv39H2xPGRMAPPA2Eb5z/7XNrGLDrl9eYZPdOH1IxfjRff9osAIIIAAAr8LEOj4JCCAAAJZFKiujcuwtc1y96hrG0Z318gGeX1WQL7Z2GJM0lEq4YR6ZG9imKOXxeiJHbEhbPTO6v2Q3e3l1f3uGV0vw9cHZV9tLIvfCA6FAAIIIJBrAQJdroU5PgIIlLyA3qM0aFWz6HTz3bmg1hkTdar9z5cHZcbuqDHjIsEne8HHS5Y7TrfL9N1RY3KbJyb55I8DuzdkU2dS1c/0rtOEu5L/AaOCCCBQ9AIEuqJvQiqAAAI9LdDW3iGVJ6Py+bKA/LkbE5ncM7pR3p4bkDGbW2T10VbucyuS+9yKNRiuOtIqoze3iC69cPco9714Nw+tk37Lm2XrD1FpZ26Vnv654XwIIIBAWgECXVoiNkAAAQREWuIdsvZoRD5a5Hd9P9wzU3zSf2XIWAagiolKCLB5DrA6WY6uGaiTrzw92eeqV1nvu/tkcUDWH4tIlNUR+GlEAAEECkKAQFcQzUAhEECgUAWOX26VTxb75bp+7iageGGaX8ZvjTDTZJ7DS7H2qvVkuXWGzbFbWkTXzXMzZPgPX16VT5cE5OQvJLtC/f2iXAgg4A0BAp032plaIoCAS4HDF+Lyr4WZX+D+94A60RkodY2x/T+zCHdPBhLOlb37Dfed7zCWvXh5pl/+y8Usmh8v8suxSwQ7lz8zbI4AAghkRYBAlxVGDoIAAqUicOB8TN6bn1mQ0zXC9L6kabuicvhS9i6qCShYFsJnoOZih0zdGRVdlF6HWmbSe/fhAr/of4bwBwEEEECg5wQIdD1nzZkQQKCABaprY/L2nPT3E908rF7em98ss6pi3AvGcEpPfQZm7onKu/Oa5S9D08/m+t48vxw4xwyZBfyTR9EQQKCEBAh0JdSYVAUBBNwL7DkTkzdmpQ9yek/c/H2EuELoOaIM+e/BnFcdk+fL039v3prtk72sa+f+h4k9EEAAARcCBDoXWGyKAAKlI7DzVExenZn+gvSlGX5ZcjDuqZ4YAlP+A1OxtMGiA3HpMz39EOXXK3yy+ww9dqXzC0pNEECgkAQIdIXUGpQFAQR6RGDkxmDa+4F0gpMBZcvlhhtuSPi7ZNMhI9xNnLUq4XXdznzPfjF+9HK7rNp+Uj7sO1juuvteY7+/3HyzPPvCa/Ld7NVyoLalW4Fx+dajcsvfbu0sh5bJfm7rv49e7pB+Q8d2bm+vm/3fTz77olT96DOOefBcRN79V7+M97Ue6977e8mmfedSls0sp5ZRTW666c+d5+r/dVlG+5rH0MddJ+rluRdf7zxGujKUzVzRua217E7PUx1Ly7+h6qx89MVQue+BhzqPqc/1tXW7T4t+HqxldXqunwl10M+Ifla0HNbPzL4zwbTHuJaypPp8O703ZsE+eXlG+mD37eZgj3zHOQkCCCDgJQECnZdam7oi4HGB07+1Su/yppRhTieAWHnk98W+nS5czdCW6j3rBfqB2rD0HTiq88LeKSA8/NiTRuCz7pfuec3PMfm437CE42qZUu2nIeHtDz5L2MepPOZr+Qh0GoY0MJll0Ee3ge7IxTYZMHxCwjHShTA3QTfZsbStPx88JiGMWuuhzzWo6ja6bbK2WlZ5WO7v9WhC+e3H0fd1u2THuNaypPp8p3pveU1cXqsIpPyOvTjdJ7V1zIjp8Z9jqo8AAlkUINBlEZNDIYBA4QosORCR/+yffKY+na1yzdHfg5x5kZzqwjXVe+b+Giw+G5Q6zJkX6g8+9Jhs2Fub9ALdPKY+OvVi6XG0TNbt7M93HKuTx554NmVQMMujjz0d6LTX6fV3P+5SPreBbu6qXV1CVbIQpkb7z4bltXc+6nJeq4X1udOxtK0Hj5yc8TF0W93H3kb6GdDPgvV8yZ4n+8xkoyypPt+p3jPrs+pIqzE7ZrKZMa8fWCfLD0UK9weDkiGAAAJFJECgK6LGoqgIINA9gWk7w0l7DN6cHZD1xxODnHlRmurCNdV75v4L1+9PGBKZ7MLcfF173LTnzdzf6VGH6+lQPHMYnrmvPmqZnPYxX1u76ye58657MgoLerxsBbpk4cUslz5qSB0zZaFj2dwEuu1Hf5PHnnyuy3GcQph5frdB1+lYK7Ydk9tuv7PzvNoTp/U5eD5qBLeZS7YmvK9DZXXIrFkGfXTqdX2m9yuyef/Phs/O43Xyzoefd55D20iH8do/M9koS6rPd6r3rPXR52uOtabssavYHe7el5q9EEAAAQQ6BQh0nRQ8QQCBUhSYXdWSNMyN2pT63jUNZNbAdM99D3T2oqV6Ty9ktZek78CRCfunuzi//8FHZPOBCwkX+dYL5H1nQkaPn/X+Mmv50gW6GUu2JJRHhxlqkLKe41qf65BUa7B575MBKYcXmuezhxBrvTINdE6ByDyOUwgzz73y++MJwVuHpbq9r3HY2BkJttoza+2BU+dhY6cnbKPDQq3+22p+kV6PPNG5zd/v+V9Zs/PHhPbZcuhSQg+eU72yUZZUn+9U75mm9sdvNiT/T5V5ewl1pfjbS50QQKDnBAh0PWfNmRBAoIcFFuxzDnMPlzWJDgmzX3Ta/60TeegFsxkKHn+6t+z+odHYL9V7epw9PzTJU8+/1LmvU4+MU4+ZeY+etSzayzN1/oa091WlC3T2C/1021vLkMlz+0QkOiRw077zaZ3VtPfLb3Vamd7mY6aBbvLctV2GWprHcAo+Zp3sQTfT85n7O00Yo8M+zffNR21bszz6qJPM6L7J3tdhoDoc1HxfH53OZf3MOL3fnbKk+nynes9aVvvz5Yfj8uC4Rsf/YNEh0fxBAAEEEOieAIGue27shQACBS6w41TU8cLxlZn+hAtk+0Wn9d97TwVEe9XMi3Brz02q9/QY2ps2e+VOGTjiO3n+pTeNe8OqTzcnnNt+YayhT3uLrGXQ5xowzDKYjzf/9ZYu4SVVQKu5EJePPv+q8zjay5dqUg17GdL9237flh5fA5bb/cz6WR8zCVjp7j1LFejsQXfy3HVpy22tl1OIsoYsc1t7e6cLdPb3zePYPw/Wc2WrLKk+36neM8uY6vHFJMsc7K2NF/ivCsVDAAEEClOAQFeY7UKpEEDgGgWemdx1NktdLyvVhab9PXsIsgaLVO/Zj5Ps3/bJO7SXSi+W7dvbL+B1KvullTXGPW7W4JMq0NkvwnX46MiJc6TPa+923o/36OPPyDcTZncuVWAvR6p/a6iwDrXUyU0ymVpfh+9Z9/t3/xHyxj8/6QyeWj+ru1MZdEZHHdppWmh4GzVpXue/9fVkge7Q+VjCvrrtiLJZ8tYHfTvLpUsO6PDIbYd/7dI2Wh6n4bWZ9IppwNbPkVkne49tJj109v8EyFZZUn2+U71n1iXd43NTu64B+UJ50zV+69kdAQQQ8KYAgc6b7U6tEShpgQXVXYda6gVkuovMnnpfL7r1gl9DhhlCtEdr+uJKxzKagU4nQtHeJL2/S9eH00lLzP31MVWg03vz9B496/bJnmu5NDBm6mGfnVJDhga1dPvrJB/WHlBdN07vEbOvd5cq0Ok9aBMrVnbWSx110hgNmNb6JQt09qBr3cf+XINn+cJNCfe9mXXU163bZ3IPne5j7q+PWhbr0NNM7qFz+k+AbJTFWq5cPD98SeSpyV1D3bKDDL0s6R9nKocAAjkRINDlhJWDIoBAvgQi8Q65dXh9wnDL6768Klt/6jpFfC4uVNMd02kB61RBQY+nk2nYe87cBjp7wLGGD6fnWqZMQpmWz97T6DTzot1FQ611SQfzfE5DBlMFOp00RIOPWQdzEhZ7fZMFOvswSPM4yR7NwGidzETrZg+1ul2qWS41iJn3Y1pt7JapJtLRczgNa81WWazlysXzTSfbEr6nusTBXSMbpL0jX78enBcBBBAoTgECXXG2G6VGAIEkAhuORbpcJA5YFUroCcnFxWmmxzR728zAoPfClc1Ybkxvn+kxdDu3gc4pSJplSPaYLHRYy6nDHa1DJDPtndPeSA0k5rnNpQ3cBDrt0dIho+YxrOuyZRro7DM2msdK9ZhsshcNaJmsZ6dDZnUpAquj+VyDovawacBNVQbtrdVhpRqMzX2tj9koi/V4uXr+xYpQl+/rlh+iSb7dvIwAAggg4CRAoHNS4TUEEChagbGbEy8Q//xVveMFb64uUFMd1ymsmBft9/d61NUkJW4CnYYEXaLAPJc+ao+VTtqi90Pp2nYaMF5+84OEbXQ7+7BAe/3mralKCGYa7jTk2bez/ltnvtRQZJbHGhydjJx66DTIfDWmvPMY9t6qTAOdPehqkNIhnFoHddN17T7u93Xnecwya6+pvZdO66hB6q33+3bZ3tzvkX88Lev2nHbc1zTS9tB1626/466kx9Ght2pl7uP0mI2yOB03m6/VXBK5YXBdQqibuDVUtL8/FBwBBBDIhwCBLh/qnBMBBHIm8ObsxPtynp5cWPfOaa+SXrDrUgQaHKw9Mfpc12PL5ILZTaDT8LN400Fjxs1n+7wmjz3xbOd6etZz7TrRIPq+GT700T5xh3V7++QYuv3Y8iUpy2+fwETrrOHLPG6mgc4+mcr7nw5MCDiZBjodsjn022ny8hvvG/cYOg0zdSpTn1ffEeuspRrupi3aLHfdfW+Cn9XSfK7hUydZ0c+AWW/zMV0IM4+hjw8/9qSs2n6yyzGyVRazTLl+/MfExAmM3pvnz9nvAwdGAAEESlGAQFeKrUqdEPCwwO0jEu+f+3RpsMsFb64vUDM9vl54631W1ov0THq49PhuAl2m5dHtRk9ekFAevYdLQ6jTMTJZ5Nq6n9ZXJyyxDrUcPn5mQm+VU3iy99DZ17vTYKNlsZ4r00Bn3SfVc723zdpO9kXg7QFTg6qub2f2gGpQf+KZPgnHMIeZmue1h1093zsffm70Eqqd3hs3dEx5gp91mKl5nGyUxTxWTzz+a1FzQg/dPaMaPPwLRtURQAAB9wIEOvdm7IEAAgUs8PdRDQkXhx8vLtxApxfLun6aLiFghgV7UEh2QZ2rQKczZZpl0UedSVPP5VQO+2yKydZNM/d1CmvWc2XyXMtnD2uZ7GfdJlWdzLLaH+3ntE6yokHMeh+hnkuDuoYw63HsE7ho6Fu944fObezDVx978jkjzFmPYZ9MRs/17/7DO5c/yFZZrOfM9fMPFiQGuv8dQ6Ar4J9YioYAAgUoQKArwEahSAgg0H2Bd+YkDrl84jvnMJLri9RMj+80y6KGh3T75zvQOQ231N69VOUu1UBnXz9OA7oGdbvF/rPhLpOmmGYa1PoOHJkQpvW+R3so1GPaewt1CO2OY3XG+bJRFnu5c/3vRyckDrn8cAFDLrv/C8ieCCDgRQECnRdbnTojUMICZVsSJ0W5cUidHLiQ2FOS6wtUPX7Fsu/ls8GjjXXWdCKMd/71hbF+nP3c9gtwHY64rPJwlzBg389NoNMJT3TY4vMvvSna66O9gE6BQ8+hk21Ye7Pe/uAzx3JrgNAgYW6bSbkLLdDpOng6uYneP/f4072N+xmd7qFTFx0+adZVH3V7vd9N30vVe2dtN6f6m8NJU71nPUa682WjLPbz5fLfe891yB8HJk6KMmV7uIR/oagaAgggkH0BAl32TTkiAgjkUWDziWjCkEtd26pvHu6jsw9ddFokWntlBn0zKSEo9HrkCdlW80t2A53DouL2e9f0ot2+0LcGFw14Thf0K78/LrpEgRlyrL1ETtvra06hxdw/08dsDrnUewOtC5trGT7uN0xqfo4l1FmHMeq9bNYyWieL0QBuvS/wzrvuEQ3qdodUPXSHzsdE19CznkN77PQzYj9Oqh66bJTFfr5c/luHROt31Pp3+08sW5DHn1BOjQACRShAoCvCRqPICCCQWuDe0Yn30enF4vrjrV0ujHN5oapT01sXvNYLdZ0UQyfHMGe5HDdtieh6YtaL+EwW5dZyu+mhcwpSGkB0gg2daEOH9VUeuNhl2QItv9bDyckeWHX9NQ0sTtu6ec2prGYvlpvjZNJTpfXW2Sat/vpclynQcKvn00f7sgVqp/e7meXRAK5B3Hocp8Bsv4fOfhx776jTZC9O99BZJ9LJVlnMuuXycfXR1oQgp9/TB8dx/1zqXzfeRQABBLoKEOi6mvAKAggUucCqw10XF3+krEmqz/fc0EunC2/rBb/T81wtW6AX5TqU0Nqj5nR++2u6zptTD5EeT0OWdftkvUluA0FPBjotm9M9jNZ6OT23L5GgRl8M+TbBQ4O6BnZdmkADvNMsl7oounUGUaf/BNA1+nTIrIZPp1kuNRTqIu2mc7bKYh4vV497atul17jGLoFu/TF654r855fiI4BAHgQIdHlA55QIIJB7gVdmJk6Oov/7//h3TXKwB++ns0+v7xQOzNf0wlyn9HeaBMPpotpND53urxf6Ok2+eb50jxo2tPxO53YKXcmGZjrtn+o1p2PnqodOy6He9qUUUtlor9nG6nNdXNy0tR5fw7v9fj23ZdHj6DBNHRJqNc1GWazHy/bzfec7xD4Rin4/35jly/0PA2dAAAEESlCAQFeCjUqVEEBA5MD5eJf//deLxqen+GT/zz3XU6dD9t56v2/KIKWLUU9dsMHoycn04tltoNPj6r1hIyfO6TLM0x5gNCRU/eRPCAnWcjndC6ZDMK3bdPd5Twc6Laf2oKl/ukXBtbcs1f2NmbS1Wt/f69GkE99kWhb9D4DPB4/pEuZM92yUxTxWNh91EpQnJnX9zxb9bh65GOenCwEEEECgGwIEum6gsQsCCBSHwJojXYde6oXjXSMbZN6+xIkvsnnRaj+WXqQvrawRnTHSDA16Qf7U8y/JmCkLkq7zZj+O9d/dCXTm/tsO/ypDRk+Vx5/q3TmZx30PPCR6/56WU8trbuv0eC3ndjqe9bV8BDrz/FovbY9nX3itM/Rqe+k9anNX7+4yWYq5n/VR7dbtPm2ErV6PPN4Z5LVH7sXX/im6dp8Ow7Tu4/Rch1dOnrvW2Ef3NUO3HlODnN7zmK43N1tlcSpfd16bvTcmt4/oen+rfic3nmCoZXH8qlJKBBAoRAECXSG2CmVCAIGsCSw/1OLYU6cXkQNXh9JeWHfnwpV9BNdfMLB+D/qvTFxORL9/5t/VRyJZ+75zIAQQQMCLAgQ6L7Y6dUbAYwKL9icPdc+X+2ThgTgBhADCZyAHn4H5+2PyzBTnIZYa6JYdavHYrxHVRQABBLIvQKDLvilHRACBAhTYfCIqfxte39krYPYOmI8a7Ob34DBMa+8Fz+nNKrXPwNzqmDw7NXmQu+ObBtn6A8MsC/CnkiIhgEARChDoirDRKDICCHRP4LdAm7w7N/lFpoY77U2Ys7fn7q8rtQt56uPtcDqrKiZPTU79HXt/vl8agu3d+xKzFwIIIIBAFwECXRcSXkAAgVIXKN8ZTtpTZ/bYPTnJJxVV6SevIMB4O8DQ/r+3/4zdUWNZEPP7k+xxxq5wqf+8UD8EEECgxwUIdD1OzgkRQKAQBI5dapWPF/nTBjtdu276boIdwYXg6vQZKN8VlccmNKX9Hn26JCAnf2kthK8+ZUAAAQRKToBAV3JNSoUQQMCNgF5k9l0aSHtBqgshT94ekQM9uDC50wU0rxGs8v0Z0HUcv/s+Ig+XpQ9yXyxrlp+uEOTc/CaxLQIIIOBWgEDnVoztEUCgJAVOXWmVfsvTB7vrvrwqfab7pWxrRKpqU6/Xlu8Lb85P+MvWZ2BPbbuM29IiL0xL36utwy37r2iWM1cJciX5Y0mlEECg4AQIdAXXJBQIAQTyKVBb1yYDVqYPduY9QjqT35jNLbLjNOEuW+GB4xRGEN1+ql1GbWpJueyA+T0wHwetapbzDW35/ApzbgQQQMBzAgQ6zzU5FUYAgUwEfm5okyFrgmmHYpoXsvr4xCSfDN8Qli0/trGmWQ7WNCPo5T7obf6hTb5eH85oghPrZ3/Y2qBcaiLIZfLbwjYIIIBAtgUIdNkW5XgIIFBSApeb2mTYuqDcmmINO+uFrfn8kbImGbI2LBtOtBLuCHcF/RlYd7xVBq8JycPj098TZ36+9fH2EfUyYn1QfvUR5ErqR4/KIIBA0QkQ6IquySgwAgjkS6DqbEy0J+LuUQ2ueu4eGNso7y9oNu67I+DlvpeJnrzUxuuPt8r4rRF5b36z3P9to6vP8j2jG+Trdc1SXRvL19eQ8yKAAAII2AQIdDYQ/okAAghkInDo57iM3BCUB8a6C3fas3HTV/Xy3FSfDFgVkjnVMdl7rqOge3AISKkDUiH76MQ9s/fGpP/KkOj9njcOqXcV4PTz+uDYBhmzKSiHL8Qz+WqwDQIIIIBADwsQ6HoYnNMhgEDpCRy/HJfxW0Ly6AR3vR3W4Wv3jWmUd+cF5NvKFllzjGGahRySCrlsq4+2GpP0vD03IPeO7v7n8R8TG2Xi1hBrx5XezxU1QgCBEhQg0JVgo1IlBBDIn8Dp31plyvawPDWp+xfTGvRuGFwnT0/2Sb8VIZm5Jyq7zjKLZiEHqXyUbeeZdpmxJypfLA/KU5N98qdBda5736z/qfDM5EaZuiMkZ+u4Jy5/vyCcGQEEEHAvQKBzb8YeCCCAQEYCOlNmxe6wfLTQL3ePcj/UzXqxrc//9nW9PPFdk/xzXrN8tTYs03ZFZe2xVjnIYuclO2RVF7LXNta21jZ/d16zMQPlLV9f++dJ74f7eFFAZle1yMVGQlxGX2o2QgABBApQgEBXgI1CkRBAoDQFrvjbZdOJqHHvXZ9pPvnjwGvrUbEGvtuGN8hTk3zGRBfD1oVlxu6orD/RKjWXuD8vH71nbs556GKH6EQl2mbadjpZyZOTfHLrcPf3Z1o/E9bn1w+8Kn2mNcnoTUGpPBmV3/wEuNL8laFWCCDgRQECnRdbnTojgEDBCBy7FJd51S3Sd0lA7v82exfw1ov5O75pkKen+OSDhc3GOnkVVVHZeLKNnr0eXE5Be9o2nmiTij1RGb4+LB8saDaG1N4+IjdtrjOr9l0akPnVLXLicmvBfN4pCAIIIIBA9gUIdNk35YgIIIBAtwUagu2y7ceojK0MyiszmuTGIdnrxbOGPPO53neloeKh8U3yfLlPdDKNvkuDMnRdWMq2RWRWVUxWHI4bi6Xv/5nePrPnTS10AfnlNXHRgFy2NWKYfbo0KG/NCRiWaqq211/jvW1mWyV7vGlInbw602dMzPP9j1FpDLV3+/PHjggggAACxSdAoCu+NqPECCDgMYEff22V5YdaZGxlSP610C+PT2yU/xmc26CXLDzoMNHbRjRIr3GNxtILGl7+vSRo3N+la5vpBC6LD8aNEKizdWpPoAafHafbZU9tu2gQqrmUv2UAdAiqlkHLomXSsmnPmZZVg6uWXeswbkuLUSet25uzA8aU/1pnHdqazaGyyZydXtdwr/dQ6mdgXGVIVtRE5NRv9L557OeA6iKAAAJdBAh0XUh4AQEEECgOgd8CbXLgfFyWZx4ASgAABUlJREFUHYwY64S9P99vLJ2g90s5BYJCeu26L6/Kfw+oM4LpX4bWy63D6+XOkQ3GVPs6XPCRsiZj8o9npvik9zS/vDzDL6/PCsg7c3//q8/1NX1Pt3n8uyZjH91Xp+vXY+kx9dgafvVc1/UrfJc/Dboqj01olA8W+OXbzSFZdrBFDp6Py9Vmet2K41tJKRFAAIGeFyDQ9bw5Z0QAAQRyLvCrr02qa2OyaH+LjNwYlPfm+eXh8Y15610qpDCZ77JcP7BOHilrlH/O88uojUFZfKBF9p2LyxUmKsn594ITIIAAAqUoQKArxValTggggEAKgctNbVJ1JiZrj0ZkTlVYxlUGZeDKZnlvvl96lzfJA2Mb5Oah+RnSme+wdS3n/+uwenlwXKO8UN4k2ls6aFWzcV/b3L0tsu5YVKrOxuSyj9klU3w0eQsBBBBAoBsCBLpuoLELAggg4AWBtnaRuuZ2OXWlVfbWxmT9sYhoOCnbEjLCig4L1Knw9d6yW4Zd+7po1xKmcrGvrvv30PhG6TPdJx8uCMjg1c0yYWvImJV0w7GoVNfGRReSrw+2S3uHFz4R1BEBBBBAoBAFCHSF2CqUCQEEEChCAQ01OkunLlJ9tq5Nfvi1VY5cjMuB8zHZcyYmOgPj5pNRWXs0KssPRYzhoNpDOH1nWCZ9HzJ6s3QI4rB1QSMwfrEsIJ8s9hu9XW/P8curFT7R9fs0ROpzfe2DBb9vo9tqj5juq8cYvyUkk7frsUNGL6QOPdVzaq+klmH7T7+XScumZdSyapm17DpLJPmsCD+AFBkBBBDwqACBzqMNT7URQAABBBBAAAEEEECg+AUIdMXfhtQAAQQQQAABBBBAAAEEPCpAoPNow1NtBBBAAAEEEEAAAQQQKH4BAl3xtyE1QAABBBBAAAEEEEAAAY8KEOg82vBUGwEEEEAAAQQQQAABBIpfgEBX/G1IDRBAAAEEEEAAAQQQQMCjAgQ6jzY81UYAAQQQQAABBBBAAIHiFyDQFX8bUgMEEEAAAQQQQAABBBDwqACBzqMNT7URQAABBBBAAAEEEECg+AUIdMXfhtQAAQQQQAABBBBAAAEEPCpAoPNow1NtBBBAAAEEEEAAAQQQKH4BAl3xtyE1QAABBBBAAAEEEEAAAY8KEOg82vBUGwEEEEAAAQQQQAABBIpfgEBX/G1IDRBAAAEEEEAAAQQQQMCjAgQ6jzY81UYAAQQQQAABBBBAAIHiFyDQFX8bUgMEEEAAAQQQQAABBBDwqACBzqMNT7URQAABBBBAAAEEEECg+AUIdMXfhtQAAQQQQAABBBBAAAEEPCpAoPNow1NtBBBAAAEEEEAAAQQQKH4BAl3xtyE1QAABBBBAAAEEEEAAAY8KEOg82vBUGwEEEEAAAQQQQAABBIpfgEBX/G1IDRBAAAEEEEAAAQQQQMCjAgQ6jzY81UYAAQQQQAABBBBAAIHiFyDQFX8bUgMEEEAAAQQQQAABBBDwqACBzqMNT7URQAABBBBAAAEEEECg+AUIdMXfhtQAAQQQQAABBBBAAAEEPCpAoPNow1NtBBBAAAEEEEAAAQQQKH4BAl3xtyE1QAABBBBAAAEEEEAAAY8KEOg82vBUGwEEEEAAAQQQQAABBIpfgEBX/G1IDRBAAAEEEEAAAQQQQMCjAgQ6jzY81UYAAQQQQAABBBBAAIHiFyDQFX8bUgMEEEAAAQQQQAABBBDwqACBzqMNT7URQAABBBBAAAEEEECg+AUIdMXfhtQAAQQQQAABBBBAAAEEPCpAoPNow1NtBBBAAAEEEEAAAQQQKH6B/wNS1aGSjer5BwAAAABJRU5ErkJggg==;" vertex="1" parent="iDujMUlF39iX-u3SAnA6-20">
          <mxGeometry x="21.340000000000003" y="10" width="215.33" height="123.5" as="geometry" />
        </mxCell>
        <mxCell id="iDujMUlF39iX-u3SAnA6-21" value="" style="shape=flexArrow;endArrow=classic;startArrow=classic;html=1;" edge="1" parent="1">
          <mxGeometry width="50" height="50" relative="1" as="geometry">
            <mxPoint x="120" y="410" as="sourcePoint" />
            <mxPoint x="240" y="320" as="targetPoint" />
          </mxGeometry>
        </mxCell>
        <mxCell id="iDujMUlF39iX-u3SAnA6-25" value="HTTP webserver" style="edgeLabel;html=1;align=center;verticalAlign=middle;resizable=0;points=[];" vertex="1" connectable="0" parent="iDujMUlF39iX-u3SAnA6-21">
          <mxGeometry x="-0.2069" y="6" relative="1" as="geometry">
            <mxPoint x="36.4" y="50.2" as="offset" />
          </mxGeometry>
        </mxCell>
        <mxCell id="iDujMUlF39iX-u3SAnA6-26" value="" style="shape=image;verticalLabelPosition=bottom;labelBackgroundColor=#ffffff;verticalAlign=top;imageAspect=0;image=data:image/png,iVBORw0KGgoAAAANSUhEUgAAAWwAAACdCAYAAACQJkKxAAAeKklEQVR4Ae2dv44kR3LG5x0Igu5gn0DGnbWG5CwW59M8EXfA3QDrLQg6tJf0CJAL3QOcQRAHAbuQK0+yDrty5MgTIIDGPkQ7JeSfiPgiMrO6eqanp7P7MxbdW10VGRnxxS+jc7qrb16/fr3sdjv+YwyoAWqAGjhzDdwQ2FysuGBTA9TAHBogsM98RWUhzVFIzBPzdAoN7AX2p7/9cXn27Nnmf2/+3k/chx9vl9vb2+X2xw+P/rbr0/u7Mtard8unkwH5w/I2ze/2dnn7sR8DSejT+Lfuk/jGR8aJGjhfDewF9m73cXmzFdh/+GUISALbREBgWywIB8aCGtiugQ3A3i1bu+xRd50SQmBvTwoFzFhRA9RATwObgL2py17priOwtcPMWwh3y7tfLTn62qt3ywfZ2gjbDAr/ugVxG7Y+0IZsidg1frzdx7dl+0RshS0btDXypwTWb4nodXvmmP1TH94uH3AL59d3y93a9dXnu/ef3DaTzvXHD4v3o9pXu4MtnPB62sZCmz0h2TGLQ94Cu71don/53DhGyHE6B8e81zwwlnzuNGL5strjsfOPxUZg7++y17prV3wCRvdoEPWFWfe9bwVkLQwECrd6zs4gVUFuNm2c5JMdl3HqIywA/XPEH0yw+Xb3qu6huznaNWpTx7Frcf8bgSXFpMecbf+3geE56ZpXd3URwDmbb7sOSC3GfhzxSR9XrkVo6/zjHALcHzQPApqAvkANbAb2ape9p7tOBY3FZ1AyUMkfI7GYsciTDXsNwbtiY6VLNzChrU/Lu1cFZOKjjTnoFFUU4AcsHtjBNzYV2BAf7fDNnlxntgCwOznP5mGxtmPdeWhnb38o7V1r464D2641/2xcOSb+elt2nvls9uyYnQf56MxDFxHNDy6ufM74zKmBA4A97rL3ddcO2AqkEjArwFLQ8f8mLIPpGOTRBnSRYVwHoU6n1y4gApxRog1E3j87LuDVOQKwbQGp4yiEbFy9rucvdKcKOrSv9gx+O4W9AHscY7UZ46hAHF9rOdwtFnebV3nd4iTx0zEPnscoRzzucqG5Y1xmictBwO522Ru66xQMLb5Y8AqSUsAGpXFBC/g0yEMbAOywR2rj+HP07X/1086L/kSRG3C8f+1xtYkg2hnw0vW9eOmxrcDGWIcYldhF38wHgabEWMdGm67go60Yn/L//tzTa+3Y3TE3zaM/tsyFj4zPrBo4ENhtl72lu07B0eJzkMJtjgDscF6voCXoCoG6FWH/L2+bu2N3C78Vstpq/InnjoDVHh/Z1OM/vq2f6cZuGGK1xxedL8K1O9/oWwtNiXHXpgP2+FqxkR+7fqRYmi+yWHTH7F5v1/rFMuaI/3e5cPljbGaIzc3Lf/ztgX+cgM9lb+yuUyC0+Fyna4XWbEF0oGQ2EGRbbNg5WtDwBzIBBEJDzlOIdvzxCe6MkQuiPT60CT7lTj+OqbCSLYzdYlspFhON08HAxjzBOwoYV/Lk516KXcft7uFX/3CO4J/G5PY48+j5x2OE8uwauPn93eE3f5LPZW/trlOQrJh7WxBWpFq4EVYBfrp1odsDBpieDT0GMBn6BGPrdXAszUePq70WzEUc7XG9NtiMcbKFRArNuthm/gA/nRcc6+8dt77hotWMkWItNhXiljtbPDo5lutc7NrzcM4Pm4fEjI9Fh4zDJcTh4C2RMumPy5sDumsHouazwVDwWMwdmEnAtZAF1gCDdE4fiAY7hIKeK7bCuPr66PiRgW1g9XGRubtYis9h/hofPK6AtYUN4SzvKMo4BvIE7RSvxqbai35anAX4GG+dB3baeR7RDizy954HIaXx5vbHgTsJ56mdewL7PCdDcT5eXhpgEwAXAQDWzOPVzGPElsAmeDaBh8Ceq7AfAxa0+fQaILAJbAKbGtikAQKbwKZQCAtqgBqgBjZq4OblPx/+KRGutE+/0jIHzAE1cH0a4JbIxpWNxXF9xcGcM+fnpgECm8Dm21FqgBqYRAME9iSJOreVnv6w+6QGTq8BApvAZndFDVADk2jgUYEtX2Hf+iO+h3zVfb7VPX4DsP1m33xzOn2HwRgx5tesgUcFdvd2rKMf9D3wq+6zJU2/4i5fJ9evtLMAZ8sl/aVmn0oDjwzs9naso277srvr0f1NKPynEj7HpfZm1MCjA3tTl72pu/Y3JMLfcMyB15sJpa0Gf67cfEi/Xp26XLyZ00OurXtfsYOWMfE+3nIzJLmhkt3d7m5591F+cBfuiAc39S/XDrZR9EZM9e53eLOkPXdKdDd92mNnRoHTZ4L5kjRwAmDv77L3dtcK1Hg7TgDY8Jx0zd1yV3+rsYFmAu5Drl0DYgZn3Lsuc8hAH4xbIOoXHfQbIRsXCj0PFiS3UOmWTPFDbG2xc0nC51wI8hk1cBJgr3bZe7trA551rbDFIN0kwk+Owa+YWEdu9rTLfsi12pX2bltqC4oCEUDqFgo8jouAzgV+D1HOVb9tHOzoBcZOmOovvMu4j51J/qru5k6f+WmQyTVwImCPu+y93bWDbuyw0/8rKBU68GssuKUA4Gvg+YBr1VboXKXTlUVGzxPYhs7ewxUWla7dCmiEb+88mHMGF8xT45b8ONTO5KInxNldz6qBkwG722Xv7a73bVf0gN3vNgWcKVENPBVkh1+7tt2QoC3jNmOuAnu8HVIWguKn2uzBOh1zwEabOE+IxyY7LPZZi51+z6/dEwK77bL3d9cpwAYa34WG4D8AurY1gSCzLleg24O9QhM7504H2j2v63OaV3/spuC0M8btmBCX7IvZS8Bv4rjZTs82jzV56eSf51Anx9DASYHtuuwt3XWEDUBRO1vpIrvwM1CtQfchwMbtBAVhx5fDgA0/jyVbPqvvDKyT7y1wGivo+J141N91O+4aQon7wdTAyTVw8/ruy5MOKt9+3NZd11VZO8C4hw0dsUIHjg061QaeD7kWxpB9a32UxaQH2yT27rh1zvpanLPvkBHGOm7a2tDFzd6huNdl+6P6uN8OOyQuWNTAU2vg5MDOXfbm7hoE0gAMwTyC3wk67NplNMADWKckN4vEPmBnuy1stYuv4zrbAmGFdYpfa8OBG/xUH7t2IBcw9lMLmOMzL9ekgZuXv/unk3bY1xRczpUwoQaogWNq4Ob3BDYXLHbM1AA1MIUGbl7+5rdTOHrMVYq22PVQA9TAjBq4+YfffUVgs7ugBqgBamACDdzcveaP8M640tJndojUwPVp4MSfw76+ALOomHNqgBo4lgYI7AneBh0r2bRDcFADc2uAwCawuXdJDVADk2iAwJ4kUeyM5u6MmD/m7xgaOFtgy1fYRz8pFo+vf9U9fdsvfDOSoGZXRQ1QA5Np4GyB7W4UNfrhXjm+9lV3/Uo7gX2MFZ422ClSA0+ngTMGdns71thVy/9Xu2sCm13UZF0Ugfh0QDz32J81sDd12Wvdde8uf3tujIS3YT335NE/FjY1cF0aOHNg7++yV7vrNWD3XpO71MEd7FgQ11UQzDfzfc4aOHtgr3bZa921vA3ubonYbVftvtH+tw17tzE950TSN4KGGrh8DUwA7HGXvdpdrwG7C/GUbAA5u2zufYuG+EgtnIkGpgB2t8ve0l2nIPfgrNsh7W8h6g8RENgs0jMpUnbOl985b83xJMBuu+xN3fUI2D2I5+Jkh71VODyPEKEGTq+BaYDtuuyt3fUI2PizWfipEe28/e8mUpinFyZjzphTA60GJgK2ddmbu2sHbPkx27oNAnB2v3GYPinC7RBuh+R3XG3BECKMyVNqYCpg5y77kO66Fp3/cVnct25/oJafDmFBPmVBcmzqb00DkwGbyVxLJl+jPqiBy9YAgc23vtz+oAaogUk0QGBPkih2TpfdOTG/zO8WDRDYBDa7K2qAGphEAwT2JInasvryHHZp1MBla4DAJrDZXVED1MAkGiCwJ0kUO6fL7pyYX+Z3iwYIbAKb3RU1QA1MogECe5JEbVl9eQ67NGrgsjVAYBPY7K6oAWpgEg0Q2BsSlb/azvuLHLWo021s3W0A5N4uozjX1901G3LX7TiPaeu+PvC6o+qpm+cLjDGBvSepvD/2I7zFrLe3dfAVYN8GkEt+jgnZY9oS//hIAJ9AAwT2niAT2KcH9u0t3qCrjn9MyB7T1h79XEvnx3k+Qp10tHWRwG7vzmd35XNdnf6Qgdx69XaxX02HHzOQH+d13V98/W5596skzV4ze7vF/MJzO76t+GU2ItT6Yx67kHQByzF5u3zI8MP5+N/GzLeuHdxz3L2mEK3xiFsj+rrEOD3anOUWuS6/VfAWs5Tnu+Xd+7dLOt+fu8FWJy/eBvrG58fWHu3tlosDti9OA3FT0J3ik3MKZNsCtiI3yMo18igFrH4orLw9Oc9+wqwCeK9fNrbaSGDS6wI83Spt14q//jEuAggd8R/OqRDNEKyLlczbfKvXaRzMVzvHIJ+P9eDcHKtzQbv1HFwkywIDMdE4IbDHttTHeh3a3uXxwLaLNcaOzwnb42jgwoANQIIODbtCKUA5ZgUoQPI/YCDn4Y8a9I6V4r1d9FfYFQwCOPANfiRBACf2xfaaX3KOXJOKIdo5eoE0wCwCLL4ItOocIfbZjwi7+n/JRT4n2C92JXYB6DpfeL3C0l0XxxWghrFK7GQOVljOFuHMPWrRzxM+XhawFZKx+AyWDhKuyKEbB+CUokWIA9hhq8Q6VRnbzstjVkjcvrpb7tJ1uTMM5wQh6NgyjvgltnSvd31+x4B3gVoLSAe7AEIbt85T/N8A7J38jJtcE2zn2GB3LbHL59Uc4HN5PT268atv+2yJP7DY2vwM8jzGWDymBi4L2LWo2z9adYCm5wKoIxh3u0WhKeDAwpXz3aMA23e9Yufu/Yfl3au6l/qr+GXXaKfubFYf1YcAeplLDzoIqgc8L/63wHbbAuJHz/d0TPx3wKwFXq91Cyoew+eyd92bbz6vxNMtJm7uJe5lLIulLbqoCcgN6kHmKHNy9gmtx4TWNdu+LGBv7rAFlNLppgKDwoUiFNAqbOA827YYFCj4c6eQtkXg7tVd/uOXbqPgYqAw6vtVYFQgKD7u9QftC3DcYwfIFUTbO2wPuG5xbQW2AlL+uGn7znnOGiOIPwDbLSYIVDd+jS/kvOszXu9iAgtR55yttnge5JBxHG4/XRawEUhQgAK01EHlrkpBagCQt8m5y+pd2zumWxLQTTuIAGwTGOW12i1KR6egPcAv52+G7hi2R4GB63CtuEpsBdJlIdT5aOGF4w6Y1dbAvm6N1IVFOvBR91z8qbGo4zT+hLHWF6O1uNb8Sl51vhafo8SedocAu7b4XhiwAZzYOcq+sQAbumSBpnvswrm8Tc7FD2B116l9K1jthJM/ahc6/PQxs87HAaPd/H+9vtjHhchs29jHFbMsPgAwXXjsmMxXwJp8cBDN8AkAT8cCRJ3vOg4ssLI4IyzreQjoFuwWe/OxHkNbEfY9/+I5BCvB+sgauDhgp0IXaGTI5SJcKdIK9lzkCgYDUOzwDAZmU+BqAABoqk2EjUAMum5NtLc79ssgl8bvjq02wZ8HHnOLRHqHkeeH8fJ+WQ68D2anXtsDIvgq5/t5yiIie864+Nl4Tg8pVu/f5T/8rtvqxBRyKTk3Pdh4brGBOfA4Y/RQDVwYsAF22C1pofUL+qFBfKrrFUQ41xMDIvvwhOM/Vew5LuH7FBq4MGBD54pbIvL8QsAi3eZJu7xeB8wtAW4BnLhBeApIntOYFwfsFNwItNHb8nNKxCG+uPmFfe1D7Bx6rnb0sgCecCvmUF95PjvgS9TARQL7EhPFORFA1AA1QGDzLR3f1lMD1MAkGiCwJ0kUuyt2V9QANUBgE9jsrqgBamASDRDYkySK3RW7K2qAGiCwCWx2V9QANTCJBs4W2J/+9sfl2bNnm/+9+ft49Y0fR+O308axYhfH2FAD56uBswX2bvdxebMV2H/4Zfk0WiE79/3wX0k+3+SwcJgbaoAaQA2cMbB3y9Yue627trvaXdbX0jGJfM6ipgauQwNnDexNXfZKdx23Quwbj3bPkbcf7bne/jTeQCp/sy/c4EjuFpe/7RduQlS/fejHj9dfh8AIEuaZGjieBs4c2Pu77LXu2gOz3tEt308EIA1fsy572wG+8Dr+2Gy8i5/c10Me9ccJ8PoTfo2cRXK8ImEsGctz0cDZA3u1y17prjXAuoeNWyII7ND56p398PaaAHG9gRTY0GNwHtzn2u79EcYa7bvzOD+1QA1QAx0NTADscZe91l1vBXb8xIjCNXbDCnIBvwEbbej1CnG8PzSBrXnpiJGvsZOlBtY1MAWwu132lu46QWFPh42wxd919Md7dgzY+KkTBTYCX2FPYLMg1wuS8WF81jQwCbDbLntTd70B2AjbFKgucJMdhW7bYaON7vV6LYG9Jka+RlhRA+samAbYrsve2l3fA9j4h0oDMexN61YHO2wW13pxMT6Mz7E1MBGwrcve3F3fA9i4LSKf+LBH6a6TEAnsY4uR9gg4amBdA1MBO3fZh3TX9wJ2CRh22hnY2llLQAlsFpdogY/Uwmk0MBmwTxMUio9xpgaogXPUAIGdunD+YwyoAWpgAg0Q2BMkiQsKF1VqgBpIGiCwCWx2VtQANTCJBgjsSRLFDosdFjVADRDYBDa7K2qAGphEAwT2JIlid8XuihqgBqYH9v/87/8t//rv/7n8yy//tvz083v+YwyoAWrgYA0kfiSOJJ6c88I4NbD/47/+++DEEOpc1KgBamBNA4kr5wrtaYGdVsK1oB/zte++frl89tUPJxvvmL4f3db3f14++/wL+/fi2+W72NHFcwax++YrsPP5y+VPf+mAJNh6/vVfu3nwtr5Yuuf95dvlOfre9euvy59eoF9/Xr6J8/v5/ZI1AbZ640WfJG5fft+Zpxvjh+VLsP3Z530fLLfl/J7d6Kf4oP7GmLhxv1jRfRlT7Tj/bX5l/Nb/rbGJ/vfH2xKvmNeB3uo8zrXTnhbY6e2LCdYEcuxjKqxucT/euMeexzHsSfEYGGqhILQrYJtzQvxyXOG6YtsX0XA8Z0sKEaBQfXDFXcG07le1BfZL/sG2whp8rbbdeD+3trbloMa08QHGc3CU+X+x2NxMlzHO23x4v5R5j8aU1wcLo/ini4GP308bY9NoohvnUbxwzBqjPXrD2CS+nGOXPS2wT7VnXYS71mlYcWDCL+95KQwPpffLTxmOUthtYaQ4NIXXQD3FMAKuLcQcUzdeHN9y4UHV98v73vEzgyfOu+9X0QlCopzXg+iaNkqs0E6aU/ShzlOBWN4RtGOVeTc5E6COHrv5sdiWuJUxx7ZrzHPH3p9P6y+MUecc39nGODfaSnOKYO/Op59HyU3iC4F9xE9kSGB7jyWJ8rY2iaUm5/PQhQTBp7eLJkAUnNjC6+PrAq0kOnvN7AkQki08t+Pbil82t1gE/TF78bnXsSz6OCYWGMwbOpk0Viyq8v/WljteY9AWtYdXLmDoRvtz89fYOf64h7zNzR+v+QpjRpAUaGCezZ6Nv/WY9zNfLxpJfuyJVRvDtXGrjkIOzefiy5ffd3yCBSDn8sW3yzdpOzFu6WR/98VmW5yjtjA2Wnv3AHayQ2CfANglgQZY2bOTRxWvCD7u2Sm0DYBybXos11cxda4V++qHCt/bk/Ok2FTUe/2ysdUGdBV+MYiFadfinOx5C1EpVCnA72Dxy9cFcEn3Zb7VMTUO9e00/N+NIYvZHgiVzqvENBdmLUqZi41vHZc7luFSfctzqPmJ8/lZ3v5bbBpISM7gWjnnudsP3wepmK/0f9GNjS/x0sdRrHJMXi7eB9Fwbyx5xzI6B2NUYqdQBFjjO5cSB+/71tjIefq3jU6c5d0HduJl8cRYV79Bc8X2aJ4lNgT2owMbgATFUxJYIC5FK8dMcFIYfvtDzmsF4c8TUH0mohBxaXcBviXQV/9EOPJ/GW/NLzlHrkmFG+1oMWMhPeC5jilAReDJnNW+n6vNpRRCttVcI7CQQhsAQeKa4wfjoL0Kbx13BDSBYbaFMPIwK7H10LGF1utK4l7iJXMp9iRHokE5d/RoMV8Hi/gS7XbHi7HRnCUfW7Chbz4Og/yE7Rt/DeTf6cj0G+cgc+suxOA7xkprEF5P85B4FFshn+HcdD6B/djAlmIOYtBVWDtkX5Au2QDTlDR9TRcAAHunw7YO187LIpQO8MXL8kmFDJhwThCNji3jiA9iq7MYNIIPNrEAD3kuvjT2qy9yvJyHoJI5WoHkcxCw4mO2ZddKgYltzGNZrATYZlvmVPyox48K7HY+6ldvTjK3/Fiv3Xue16dCS/LvbK69gwh26nUuNmirxkkXus5rMRfx3JjbHrAlR/4xxmZjnKv+0I9GN8IFjF/nOu8PgX3UFSsGN/+/JkG3F1RwUtjQqei5ne0TSGwRt3XEWpwC0eaxBU6Ci9h5/vUP9WNj6Tzxy67RTr2xiz6ImOt8ZC6HgkDj0y9sjHHxH/zUa6HTGhY8nCOLYMfXUmh+DCk+64rq3HOOavw6tvBtuQDPYCPzrddnW2hXXi+PZe4V/jXWja3horBiS2Poz8G4y/NebOS18fz6dke2Rse184a6kDpAULqY17kVm+2Cqr5DDA6Pc81ZJ//ZVj3u7MJ4+3xjh302HXYt1ARFTbZBELcaSrL7sHRiBSGoGGVl/1z2EQuMxObzF+kPMujDdr+K2Ipfam/wGWX1J+4/N4vCuLDGxVx8zrEYQsvDcFQoo+PmfwJQGa8Ac1ywHh7go8uTP57jqHow2LnjGdh+USn+eVve52BL3xnZ8dH5cnwc/8M77L6tlViqjjvNTdZQ0Y3oULYv4uO+einX48K4L85eVxKr9IhacvnD/A9zWfJCYD82sBFI0A2gkHKhgwC1U4Jj68CGbRIovCIQhG9KehWUgFFgIB1xPa5CBh/2+SVdlRXFGLYo5Hs/r76pryJ8FP3onLCv6WEq0IrFNwAgjqeF2Ra2L9Jou47ZtRXjGPyoudP8SBzq3MvxOp7kW84RPYA2Yz683xIb0Vz0rb7uxt5/TX+MME/12ex5X7edj+As12+MzYPiXONV41/qv41d65ufK4F9RGCPPoet4BRIpkfZN9Y97CoaPAefQ0GVZFtngZ2kwdJej4Xs/FG7RezleoTNdr+S+J1vatuLzhfZw14r46G/dR4wdnuOzAkLpj1W4oS2fZeU59FdEKoPCMdesddjtuC0vkv3bu+6JMbrvveuK4sSfkxUbPk5NvnpzFE0ZL6HPA6ArYs65EdsRZ3Kuc3xIbhL/IY+1evKeBg/+ePyvti0Gtka52aONT7YiPXyg7ng57CPCOu08q1901ESloGYC7kWpwI7Cd6OpfOy8GpR+z3wznlZjP54stEVu9r0rytsETQdu2O/TPjDsYfFFgr+gPNcbNMiBzAQwTfnNHMs42sM8mLZB1m01Y2xdK6w6HbPk8KV8zq+N++K4F2UzC89et/7cRAIZh3mMQO4hnGP2urHRv0ZAbujJ/ujeNBAb5Eb+mf1cy9gJ7sxF0eNcy9eMaa+HjWWdc78puORgd2/lwgkBSGh0OwlMgh3VaTnda7CDOc6kf+xSPj/89LXNeeD9xI5MrBTl927W1/T+Ug3lR4vBGxxjvu6nGsuPM6di8ChGuDd+h4B1vIHgbQSprcvuKcdgZbfkl4IrJP43Py6b+tZpIcWKc+/bs0kfiSOnGtnLbyb9uZPMgE+8lc4qAFq4Fo0QGA/Yvd/LSLiPAlMauA0GiCwCeyjfgOVhXuawmWcrzPOBDaBTWBTA9TAJBogsCdJFDuq6+yomHfmHTVAYBPY7K6oAWpgEg0Q2JMkCldZPmfXRQ1cpwYIbAKb3RU1QA1MogECe5JEsaO6zo6KeWfeUQMENoHN7ooaoAYm0QCBPUmicJXlc3Zd1MB1aoDAJrDZXVED1MAkGiCwJ0kUO6rr7KiYd+YdNUBgE9jsrqgBamASDRDYkyQKV1k+Z9dFDVynBghsApvdFTVADUyiAQJ7kkSxo7rOjop5Z95RAwQ2gc3uihqgBibRAIE9SaJwleVzdl3UwHVqgMAmsNldUQPUwCQaILAnSRQ7quvsqJh35h01QGAT2OyuqAFqYBINENiTJApXWT5n10UNXKcGCGwCm90VNUANTKIBAnuSRLGjus6Oinln3lEDBDaBze6KGqAGJtEAgT1JonCV5XN2XdTAdWqAwCaw2V1RA9TAJBogsCdJFDuq6+yomHfmHTVAYBPY7K6oAWpgEg0Q2JMkCldZPmfXRQ1cpwYIbAKb3RU1QA1MogECe5JEsaO6zo6KeWfeUQP/D4jQmUbEAU5FAAAAAElFTkSuQmCC;" vertex="1" parent="1">
          <mxGeometry x="345.92" y="440" width="220" height="120" as="geometry" />
        </mxCell>
        <mxCell id="iDujMUlF39iX-u3SAnA6-27" value="Broker MQTT" style="edgeLabel;html=1;align=center;verticalAlign=middle;resizable=0;points=[];" vertex="1" connectable="0" parent="1">
          <mxGeometry x="390" y="420" as="geometry" />
        </mxCell>
        <mxCell id="iDujMUlF39iX-u3SAnA6-28" value="WIFI" style="text;html=1;strokeColor=none;fillColor=none;align=center;verticalAlign=middle;whiteSpace=wrap;rounded=0;" vertex="1" parent="1">
          <mxGeometry x="390" y="230" width="40" height="20" as="geometry" />
        </mxCell>
        <mxCell id="iDujMUlF39iX-u3SAnA6-29" value="C&amp;amp;C MSG" style="text;html=1;strokeColor=none;fillColor=none;align=center;verticalAlign=middle;whiteSpace=wrap;rounded=0;" vertex="1" parent="1">
          <mxGeometry x="584.92" y="310" width="40" height="20" as="geometry" />
        </mxCell>
        <mxCell id="iDujMUlF39iX-u3SAnA6-32" value="C&amp;amp;C MSG" style="text;html=1;strokeColor=none;fillColor=none;align=center;verticalAlign=middle;whiteSpace=wrap;rounded=0;" vertex="1" parent="1">
          <mxGeometry x="540" y="160" width="40" height="20" as="geometry" />
        </mxCell>
        <mxCell id="iDujMUlF39iX-u3SAnA6-37" value="&lt;b&gt;&lt;font style=&quot;font-size: 15px&quot;&gt;Funzionalità Web Interface&lt;/font&gt;&lt;/b&gt;" style="text;html=1;strokeColor=none;fillColor=none;align=center;verticalAlign=middle;whiteSpace=wrap;rounded=0;" vertex="1" parent="1">
          <mxGeometry x="40" y="640" width="210" height="20" as="geometry" />
        </mxCell>
        <mxCell id="iDujMUlF39iX-u3SAnA6-39" value="&lt;ul style=&quot;font-size: 17px&quot;&gt;&lt;li style=&quot;font-size: 17px&quot;&gt;&lt;span&gt;Visualizzazione lista nodi&lt;/span&gt;&lt;br&gt;&lt;/li&gt;&lt;li style=&quot;font-size: 17px&quot;&gt;Visualizzazione stato singolo nodo&lt;/li&gt;&lt;li style=&quot;font-size: 17px&quot;&gt;edit configurazioni relative a nodo&lt;/li&gt;&lt;li style=&quot;font-size: 17px&quot;&gt;aggiornamento ota per tutti i dispositivi (1 solo fw)&lt;/li&gt;&lt;/ul&gt;" style="text;strokeColor=none;fillColor=none;html=1;whiteSpace=wrap;verticalAlign=middle;overflow=hidden;fontSize=17;" vertex="1" parent="1">
          <mxGeometry x="60" y="660" width="250" height="230" as="geometry" />
        </mxCell>
      </root>
    </mxGraphModel>
  </diagram>
</mxfile>
